<mxfile host="app.diagrams.net" modified="2023-08-04T17:38:46.912Z" agent="Mozilla/5.0 (Windows NT 10.0; Win64; x64) AppleWebKit/537.36 (KHTML, like Gecko) Chrome/115.0.0.0 Safari/537.36" etag="vRQFJt8aH3WlmIkcyuZC" version="21.6.6" type="google">
  <diagram id="C5RBs43oDa-KdzZeNtuy" name="Page-1">
    <mxGraphModel grid="1" page="1" gridSize="10" guides="1" tooltips="1" connect="1" arrows="1" fold="1" pageScale="1" pageWidth="6000" pageHeight="2500" math="0" shadow="0">
      <root>
        <mxCell id="WIyWlLk6GJQsqaUBKTNV-0" />
        <mxCell id="WIyWlLk6GJQsqaUBKTNV-1" parent="WIyWlLk6GJQsqaUBKTNV-0" />
        <mxCell id="mW0xl6wsFZFQzlrAiL7S-0" value="Start" style="ellipse;whiteSpace=wrap;html=1;" vertex="1" parent="WIyWlLk6GJQsqaUBKTNV-1">
          <mxGeometry x="2685" y="10" width="120" height="80" as="geometry" />
        </mxCell>
        <mxCell id="mW0xl6wsFZFQzlrAiL7S-1" value="" style="endArrow=classic;html=1;rounded=0;" edge="1" parent="WIyWlLk6GJQsqaUBKTNV-1">
          <mxGeometry width="50" height="50" relative="1" as="geometry">
            <mxPoint x="2744.5" y="90" as="sourcePoint" />
            <mxPoint x="2744.5" y="150" as="targetPoint" />
          </mxGeometry>
        </mxCell>
        <mxCell id="mW0xl6wsFZFQzlrAiL7S-2" value="" style="endArrow=classic;html=1;rounded=0;" edge="1" parent="WIyWlLk6GJQsqaUBKTNV-1">
          <mxGeometry width="50" height="50" relative="1" as="geometry">
            <mxPoint x="1274" y="240" as="sourcePoint" />
            <mxPoint x="570" y="240" as="targetPoint" />
          </mxGeometry>
        </mxCell>
        <mxCell id="mW0xl6wsFZFQzlrAiL7S-3" value="" style="endArrow=classic;html=1;rounded=0;" edge="1" parent="WIyWlLk6GJQsqaUBKTNV-1">
          <mxGeometry width="50" height="50" relative="1" as="geometry">
            <mxPoint x="1274" y="240" as="sourcePoint" />
            <mxPoint x="4930" y="240" as="targetPoint" />
          </mxGeometry>
        </mxCell>
        <mxCell id="mW0xl6wsFZFQzlrAiL7S-4" value="" style="endArrow=classic;html=1;rounded=0;" edge="1" parent="WIyWlLk6GJQsqaUBKTNV-1">
          <mxGeometry width="50" height="50" relative="1" as="geometry">
            <mxPoint x="564.6700000000001" y="352" as="sourcePoint" />
            <mxPoint x="564.6700000000001" y="432" as="targetPoint" />
          </mxGeometry>
        </mxCell>
        <mxCell id="mW0xl6wsFZFQzlrAiL7S-6" value="int intCorrect = 0; int intIncorrect = 0; intQ1Status = -1; intQ2Status = -1; intQ3Status = -1; intQ4Status = -1; intQ5Status = -1;" style="shape=label;whiteSpace=wrap;html=1;fixedSize=1;rounded=0;" vertex="1" parent="WIyWlLk6GJQsqaUBKTNV-1">
          <mxGeometry x="2575" y="150" width="340" height="60" as="geometry" />
        </mxCell>
        <mxCell id="mW0xl6wsFZFQzlrAiL7S-7" value="" style="endArrow=classic;html=1;rounded=0;" edge="1" parent="WIyWlLk6GJQsqaUBKTNV-1">
          <mxGeometry width="50" height="50" relative="1" as="geometry">
            <mxPoint x="2750" y="210" as="sourcePoint" />
            <mxPoint x="2750" y="240" as="targetPoint" />
          </mxGeometry>
        </mxCell>
        <mxCell id="mW0xl6wsFZFQzlrAiL7S-8" value="if (lblQ1Response.equals&lt;br&gt;(STRQ1CORRECTANSLOWER) || &lt;br&gt;lblQ1Response.equals&lt;br&gt;(STRQ1CORRECTANSUPPER))" style="rhombus;whiteSpace=wrap;html=1;" vertex="1" parent="WIyWlLk6GJQsqaUBKTNV-1">
          <mxGeometry x="400" y="432" width="330" height="120" as="geometry" />
        </mxCell>
        <mxCell id="mW0xl6wsFZFQzlrAiL7S-10" value="True" style="rounded=0;whiteSpace=wrap;html=1;" vertex="1" parent="WIyWlLk6GJQsqaUBKTNV-1">
          <mxGeometry x="800" y="462.00000000000006" width="120" height="60" as="geometry" />
        </mxCell>
        <mxCell id="mW0xl6wsFZFQzlrAiL7S-11" value="" style="endArrow=classic;html=1;rounded=0;entryX=0.5;entryY=0;entryDx=0;entryDy=0;" edge="1" parent="WIyWlLk6GJQsqaUBKTNV-1" target="mW0xl6wsFZFQzlrAiL7S-15">
          <mxGeometry width="50" height="50" relative="1" as="geometry">
            <mxPoint x="860" y="659" as="sourcePoint" />
            <mxPoint x="859.6700000000001" y="719" as="targetPoint" />
          </mxGeometry>
        </mxCell>
        <mxCell id="mW0xl6wsFZFQzlrAiL7S-12" value="" style="endArrow=classic;html=1;rounded=0;exitX=1;exitY=0.5;exitDx=0;exitDy=0;entryX=0;entryY=0.5;entryDx=0;entryDy=0;" edge="1" parent="WIyWlLk6GJQsqaUBKTNV-1" source="mW0xl6wsFZFQzlrAiL7S-8">
          <mxGeometry width="50" height="50" relative="1" as="geometry">
            <mxPoint x="830" y="511.67" as="sourcePoint" />
            <mxPoint x="800" y="492" as="targetPoint" />
          </mxGeometry>
        </mxCell>
        <mxCell id="mW0xl6wsFZFQzlrAiL7S-15" value="if (intQ1Status == 0)" style="rhombus;whiteSpace=wrap;html=1;" vertex="1" parent="WIyWlLk6GJQsqaUBKTNV-1">
          <mxGeometry x="800" y="719" width="120" height="80" as="geometry" />
        </mxCell>
        <mxCell id="mW0xl6wsFZFQzlrAiL7S-16" value="" style="endArrow=classic;html=1;rounded=0;" edge="1" parent="WIyWlLk6GJQsqaUBKTNV-1" target="mW0xl6wsFZFQzlrAiL7S-17">
          <mxGeometry width="50" height="50" relative="1" as="geometry">
            <mxPoint x="800" y="758.6700000000001" as="sourcePoint" />
            <mxPoint x="710" y="758.6700000000001" as="targetPoint" />
          </mxGeometry>
        </mxCell>
        <mxCell id="mW0xl6wsFZFQzlrAiL7S-17" value="True" style="rounded=0;whiteSpace=wrap;html=1;" vertex="1" parent="WIyWlLk6GJQsqaUBKTNV-1">
          <mxGeometry x="610" y="729" width="120" height="60" as="geometry" />
        </mxCell>
        <mxCell id="mW0xl6wsFZFQzlrAiL7S-18" value="" style="endArrow=classic;html=1;rounded=0;entryX=0.5;entryY=0;entryDx=0;entryDy=0;" edge="1" parent="WIyWlLk6GJQsqaUBKTNV-1" target="mW0xl6wsFZFQzlrAiL7S-21">
          <mxGeometry width="50" height="50" relative="1" as="geometry">
            <mxPoint x="670" y="789" as="sourcePoint" />
            <mxPoint x="670" y="849" as="targetPoint" />
          </mxGeometry>
        </mxCell>
        <mxCell id="mW0xl6wsFZFQzlrAiL7S-19" value="" style="endArrow=classic;html=1;rounded=0;entryX=0.5;entryY=0;entryDx=0;entryDy=0;" edge="1" parent="WIyWlLk6GJQsqaUBKTNV-1">
          <mxGeometry width="50" height="50" relative="1" as="geometry">
            <mxPoint x="859.6700000000001" y="799" as="sourcePoint" />
            <mxPoint x="859.6700000000001" y="859" as="targetPoint" />
          </mxGeometry>
        </mxCell>
        <mxCell id="mW0xl6wsFZFQzlrAiL7S-20" value="False" style="rounded=0;whiteSpace=wrap;html=1;" vertex="1" parent="WIyWlLk6GJQsqaUBKTNV-1">
          <mxGeometry x="800" y="859" width="120" height="60" as="geometry" />
        </mxCell>
        <mxCell id="mW0xl6wsFZFQzlrAiL7S-21" value="intIncorrect--;" style="shape=label;whiteSpace=wrap;html=1;fixedSize=1;rounded=0;" vertex="1" parent="WIyWlLk6GJQsqaUBKTNV-1">
          <mxGeometry x="610" y="999" width="120" height="60" as="geometry" />
        </mxCell>
        <mxCell id="mW0xl6wsFZFQzlrAiL7S-22" value="" style="endArrow=classic;html=1;rounded=0;" edge="1" parent="WIyWlLk6GJQsqaUBKTNV-1">
          <mxGeometry width="50" height="50" relative="1" as="geometry">
            <mxPoint x="859.6700000000001" y="919" as="sourcePoint" />
            <mxPoint x="859.6700000000001" y="989" as="targetPoint" />
          </mxGeometry>
        </mxCell>
        <mxCell id="mW0xl6wsFZFQzlrAiL7S-23" value="" style="endArrow=classic;html=1;rounded=0;exitX=1;exitY=0.5;exitDx=0;exitDy=0;entryX=0;entryY=0.5;entryDx=0;entryDy=0;" edge="1" parent="WIyWlLk6GJQsqaUBKTNV-1" source="mW0xl6wsFZFQzlrAiL7S-21" target="mW0xl6wsFZFQzlrAiL7S-24">
          <mxGeometry width="50" height="50" relative="1" as="geometry">
            <mxPoint x="830" y="969" as="sourcePoint" />
            <mxPoint x="820" y="1019" as="targetPoint" />
          </mxGeometry>
        </mxCell>
        <mxCell id="mW0xl6wsFZFQzlrAiL7S-24" value="if (intQ1Status != 1)" style="rhombus;whiteSpace=wrap;html=1;" vertex="1" parent="WIyWlLk6GJQsqaUBKTNV-1">
          <mxGeometry x="800" y="989" width="120" height="80" as="geometry" />
        </mxCell>
        <mxCell id="mW0xl6wsFZFQzlrAiL7S-25" value="" style="endArrow=classic;html=1;rounded=0;entryX=0;entryY=0.5;entryDx=0;entryDy=0;exitX=1;exitY=0.5;exitDx=0;exitDy=0;" edge="1" parent="WIyWlLk6GJQsqaUBKTNV-1" source="mW0xl6wsFZFQzlrAiL7S-24">
          <mxGeometry width="50" height="50" relative="1" as="geometry">
            <mxPoint x="930" y="1009" as="sourcePoint" />
            <mxPoint x="970" y="1029" as="targetPoint" />
          </mxGeometry>
        </mxCell>
        <mxCell id="mW0xl6wsFZFQzlrAiL7S-26" value="True" style="rounded=0;whiteSpace=wrap;html=1;" vertex="1" parent="WIyWlLk6GJQsqaUBKTNV-1">
          <mxGeometry x="970" y="1000" width="120" height="60" as="geometry" />
        </mxCell>
        <mxCell id="mW0xl6wsFZFQzlrAiL7S-27" value="" style="endArrow=classic;html=1;rounded=0;entryX=0.5;entryY=0;entryDx=0;entryDy=0;" edge="1" parent="WIyWlLk6GJQsqaUBKTNV-1">
          <mxGeometry width="50" height="50" relative="1" as="geometry">
            <mxPoint x="1030" y="1059" as="sourcePoint" />
            <mxPoint x="1030" y="1259" as="targetPoint" />
          </mxGeometry>
        </mxCell>
        <mxCell id="mW0xl6wsFZFQzlrAiL7S-28" value="intCorrect++;" style="shape=label;whiteSpace=wrap;html=1;fixedSize=1;rounded=0;" vertex="1" parent="WIyWlLk6GJQsqaUBKTNV-1">
          <mxGeometry x="970" y="1255" width="120" height="60" as="geometry" />
        </mxCell>
        <mxCell id="mW0xl6wsFZFQzlrAiL7S-32" value="" style="endArrow=classic;html=1;rounded=0;entryX=1;entryY=0.5;entryDx=0;entryDy=0;" edge="1" parent="WIyWlLk6GJQsqaUBKTNV-1" target="mW0xl6wsFZFQzlrAiL7S-36">
          <mxGeometry width="50" height="50" relative="1" as="geometry">
            <mxPoint x="980" y="1289" as="sourcePoint" />
            <mxPoint x="900" y="1288.67" as="targetPoint" />
          </mxGeometry>
        </mxCell>
        <mxCell id="mW0xl6wsFZFQzlrAiL7S-33" value="" style="endArrow=classic;html=1;rounded=0;entryX=0.5;entryY=0;entryDx=0;entryDy=0;" edge="1" parent="WIyWlLk6GJQsqaUBKTNV-1">
          <mxGeometry width="50" height="50" relative="1" as="geometry">
            <mxPoint x="859.6700000000001" y="1069" as="sourcePoint" />
            <mxPoint x="859.6700000000001" y="1129" as="targetPoint" />
          </mxGeometry>
        </mxCell>
        <mxCell id="mW0xl6wsFZFQzlrAiL7S-34" value="False" style="rounded=0;whiteSpace=wrap;html=1;" vertex="1" parent="WIyWlLk6GJQsqaUBKTNV-1">
          <mxGeometry x="800" y="1129" width="120" height="60" as="geometry" />
        </mxCell>
        <mxCell id="mW0xl6wsFZFQzlrAiL7S-35" value="" style="endArrow=classic;html=1;rounded=0;" edge="1" parent="WIyWlLk6GJQsqaUBKTNV-1">
          <mxGeometry width="50" height="50" relative="1" as="geometry">
            <mxPoint x="859.6700000000001" y="1189" as="sourcePoint" />
            <mxPoint x="859.6700000000001" y="1259" as="targetPoint" />
          </mxGeometry>
        </mxCell>
        <mxCell id="mW0xl6wsFZFQzlrAiL7S-36" value="intQ1Status=1;" style="shape=label;whiteSpace=wrap;html=1;fixedSize=1;rounded=0;" vertex="1" parent="WIyWlLk6GJQsqaUBKTNV-1">
          <mxGeometry x="800" y="1259" width="120" height="60" as="geometry" />
        </mxCell>
        <mxCell id="mW0xl6wsFZFQzlrAiL7S-37" value="" style="endArrow=classic;html=1;rounded=0;" edge="1" parent="WIyWlLk6GJQsqaUBKTNV-1">
          <mxGeometry width="50" height="50" relative="1" as="geometry">
            <mxPoint x="859.6599999999999" y="1319" as="sourcePoint" />
            <mxPoint x="859.6599999999999" y="1439" as="targetPoint" />
          </mxGeometry>
        </mxCell>
        <mxCell id="mW0xl6wsFZFQzlrAiL7S-38" value="False" style="rounded=0;whiteSpace=wrap;html=1;" vertex="1" parent="WIyWlLk6GJQsqaUBKTNV-1">
          <mxGeometry x="210" y="462.00000000000006" width="120" height="60" as="geometry" />
        </mxCell>
        <mxCell id="mW0xl6wsFZFQzlrAiL7S-39" value="" style="endArrow=classic;html=1;rounded=0;entryX=0.5;entryY=0;entryDx=0;entryDy=0;" edge="1" parent="WIyWlLk6GJQsqaUBKTNV-1" target="mW0xl6wsFZFQzlrAiL7S-40">
          <mxGeometry width="50" height="50" relative="1" as="geometry">
            <mxPoint x="270" y="659" as="sourcePoint" />
            <mxPoint x="269.6700000000001" y="719" as="targetPoint" />
          </mxGeometry>
        </mxCell>
        <mxCell id="mW0xl6wsFZFQzlrAiL7S-40" value="if (intQ1Status == 1)" style="rhombus;whiteSpace=wrap;html=1;" vertex="1" parent="WIyWlLk6GJQsqaUBKTNV-1">
          <mxGeometry x="210" y="719" width="120" height="80" as="geometry" />
        </mxCell>
        <mxCell id="mW0xl6wsFZFQzlrAiL7S-41" value="" style="endArrow=classic;html=1;rounded=0;" edge="1" parent="WIyWlLk6GJQsqaUBKTNV-1" target="mW0xl6wsFZFQzlrAiL7S-42">
          <mxGeometry width="50" height="50" relative="1" as="geometry">
            <mxPoint x="210" y="758.6700000000001" as="sourcePoint" />
            <mxPoint x="120" y="758.6700000000001" as="targetPoint" />
          </mxGeometry>
        </mxCell>
        <mxCell id="mW0xl6wsFZFQzlrAiL7S-42" value="True" style="rounded=0;whiteSpace=wrap;html=1;" vertex="1" parent="WIyWlLk6GJQsqaUBKTNV-1">
          <mxGeometry x="20" y="729" width="120" height="60" as="geometry" />
        </mxCell>
        <mxCell id="mW0xl6wsFZFQzlrAiL7S-43" value="" style="endArrow=classic;html=1;rounded=0;entryX=0.5;entryY=0;entryDx=0;entryDy=0;" edge="1" parent="WIyWlLk6GJQsqaUBKTNV-1" target="mW0xl6wsFZFQzlrAiL7S-46">
          <mxGeometry width="50" height="50" relative="1" as="geometry">
            <mxPoint x="80" y="789" as="sourcePoint" />
            <mxPoint x="80" y="849" as="targetPoint" />
          </mxGeometry>
        </mxCell>
        <mxCell id="mW0xl6wsFZFQzlrAiL7S-44" value="" style="endArrow=classic;html=1;rounded=0;entryX=0.5;entryY=0;entryDx=0;entryDy=0;" edge="1" parent="WIyWlLk6GJQsqaUBKTNV-1">
          <mxGeometry width="50" height="50" relative="1" as="geometry">
            <mxPoint x="269.6700000000001" y="799" as="sourcePoint" />
            <mxPoint x="269.6700000000001" y="859" as="targetPoint" />
          </mxGeometry>
        </mxCell>
        <mxCell id="mW0xl6wsFZFQzlrAiL7S-45" value="False" style="rounded=0;whiteSpace=wrap;html=1;" vertex="1" parent="WIyWlLk6GJQsqaUBKTNV-1">
          <mxGeometry x="210" y="859" width="120" height="60" as="geometry" />
        </mxCell>
        <mxCell id="mW0xl6wsFZFQzlrAiL7S-46" value="intCorrect--;" style="shape=label;whiteSpace=wrap;html=1;fixedSize=1;rounded=0;" vertex="1" parent="WIyWlLk6GJQsqaUBKTNV-1">
          <mxGeometry x="20" y="999" width="120" height="60" as="geometry" />
        </mxCell>
        <mxCell id="mW0xl6wsFZFQzlrAiL7S-47" value="" style="endArrow=classic;html=1;rounded=0;" edge="1" parent="WIyWlLk6GJQsqaUBKTNV-1">
          <mxGeometry width="50" height="50" relative="1" as="geometry">
            <mxPoint x="269.6700000000001" y="919" as="sourcePoint" />
            <mxPoint x="269.6700000000001" y="989" as="targetPoint" />
          </mxGeometry>
        </mxCell>
        <mxCell id="mW0xl6wsFZFQzlrAiL7S-48" value="" style="endArrow=classic;html=1;rounded=0;exitX=1;exitY=0.5;exitDx=0;exitDy=0;entryX=0;entryY=0.5;entryDx=0;entryDy=0;" edge="1" parent="WIyWlLk6GJQsqaUBKTNV-1" source="mW0xl6wsFZFQzlrAiL7S-46" target="mW0xl6wsFZFQzlrAiL7S-49">
          <mxGeometry width="50" height="50" relative="1" as="geometry">
            <mxPoint x="240" y="969" as="sourcePoint" />
            <mxPoint x="230" y="1019" as="targetPoint" />
          </mxGeometry>
        </mxCell>
        <mxCell id="mW0xl6wsFZFQzlrAiL7S-49" value="if (intQ1Status != 0)" style="rhombus;whiteSpace=wrap;html=1;" vertex="1" parent="WIyWlLk6GJQsqaUBKTNV-1">
          <mxGeometry x="210" y="989" width="120" height="80" as="geometry" />
        </mxCell>
        <mxCell id="mW0xl6wsFZFQzlrAiL7S-50" value="" style="endArrow=classic;html=1;rounded=0;entryX=0;entryY=0.5;entryDx=0;entryDy=0;exitX=1;exitY=0.5;exitDx=0;exitDy=0;" edge="1" parent="WIyWlLk6GJQsqaUBKTNV-1" source="mW0xl6wsFZFQzlrAiL7S-49" target="mW0xl6wsFZFQzlrAiL7S-51">
          <mxGeometry width="50" height="50" relative="1" as="geometry">
            <mxPoint x="340" y="1009" as="sourcePoint" />
            <mxPoint x="320" y="1028.8476923076923" as="targetPoint" />
          </mxGeometry>
        </mxCell>
        <mxCell id="mW0xl6wsFZFQzlrAiL7S-51" value="True" style="rounded=0;whiteSpace=wrap;html=1;" vertex="1" parent="WIyWlLk6GJQsqaUBKTNV-1">
          <mxGeometry x="380" y="999" width="120" height="60" as="geometry" />
        </mxCell>
        <mxCell id="mW0xl6wsFZFQzlrAiL7S-52" value="" style="endArrow=classic;html=1;rounded=0;entryX=0.5;entryY=0;entryDx=0;entryDy=0;" edge="1" parent="WIyWlLk6GJQsqaUBKTNV-1" target="mW0xl6wsFZFQzlrAiL7S-53">
          <mxGeometry width="50" height="50" relative="1" as="geometry">
            <mxPoint x="440" y="1059" as="sourcePoint" />
            <mxPoint x="440" y="1119" as="targetPoint" />
          </mxGeometry>
        </mxCell>
        <mxCell id="mW0xl6wsFZFQzlrAiL7S-53" value="intIncorrect++;" style="shape=label;whiteSpace=wrap;html=1;fixedSize=1;rounded=0;" vertex="1" parent="WIyWlLk6GJQsqaUBKTNV-1">
          <mxGeometry x="380" y="1259" width="120" height="60" as="geometry" />
        </mxCell>
        <mxCell id="mW0xl6wsFZFQzlrAiL7S-54" value="" style="endArrow=classic;html=1;rounded=0;entryX=1;entryY=0.5;entryDx=0;entryDy=0;" edge="1" parent="WIyWlLk6GJQsqaUBKTNV-1" source="mW0xl6wsFZFQzlrAiL7S-53" target="mW0xl6wsFZFQzlrAiL7S-58">
          <mxGeometry width="50" height="50" relative="1" as="geometry">
            <mxPoint x="390" y="1288.67" as="sourcePoint" />
            <mxPoint x="310" y="1288.67" as="targetPoint" />
          </mxGeometry>
        </mxCell>
        <mxCell id="mW0xl6wsFZFQzlrAiL7S-55" value="" style="endArrow=classic;html=1;rounded=0;entryX=0.5;entryY=0;entryDx=0;entryDy=0;" edge="1" parent="WIyWlLk6GJQsqaUBKTNV-1">
          <mxGeometry width="50" height="50" relative="1" as="geometry">
            <mxPoint x="269.6700000000001" y="1069" as="sourcePoint" />
            <mxPoint x="269.6700000000001" y="1129" as="targetPoint" />
          </mxGeometry>
        </mxCell>
        <mxCell id="mW0xl6wsFZFQzlrAiL7S-56" value="False" style="rounded=0;whiteSpace=wrap;html=1;" vertex="1" parent="WIyWlLk6GJQsqaUBKTNV-1">
          <mxGeometry x="210" y="1129" width="120" height="60" as="geometry" />
        </mxCell>
        <mxCell id="mW0xl6wsFZFQzlrAiL7S-57" value="" style="endArrow=classic;html=1;rounded=0;" edge="1" parent="WIyWlLk6GJQsqaUBKTNV-1">
          <mxGeometry width="50" height="50" relative="1" as="geometry">
            <mxPoint x="269.6700000000001" y="1189" as="sourcePoint" />
            <mxPoint x="269.6700000000001" y="1259" as="targetPoint" />
          </mxGeometry>
        </mxCell>
        <mxCell id="mW0xl6wsFZFQzlrAiL7S-58" value="intQ1Status=0;" style="shape=label;whiteSpace=wrap;html=1;fixedSize=1;rounded=0;" vertex="1" parent="WIyWlLk6GJQsqaUBKTNV-1">
          <mxGeometry x="210" y="1259" width="120" height="60" as="geometry" />
        </mxCell>
        <mxCell id="mW0xl6wsFZFQzlrAiL7S-59" value="" style="endArrow=classic;html=1;rounded=0;" edge="1" parent="WIyWlLk6GJQsqaUBKTNV-1">
          <mxGeometry width="50" height="50" relative="1" as="geometry">
            <mxPoint x="269.65999999999985" y="1319" as="sourcePoint" />
            <mxPoint x="269.65999999999985" y="1439" as="targetPoint" />
          </mxGeometry>
        </mxCell>
        <mxCell id="mW0xl6wsFZFQzlrAiL7S-61" value="" style="endArrow=classic;html=1;rounded=0;exitX=1;exitY=0.5;exitDx=0;exitDy=0;entryX=1;entryY=0.5;entryDx=0;entryDy=0;" edge="1" parent="WIyWlLk6GJQsqaUBKTNV-1" target="mW0xl6wsFZFQzlrAiL7S-38">
          <mxGeometry width="50" height="50" relative="1" as="geometry">
            <mxPoint x="400" y="491.74" as="sourcePoint" />
            <mxPoint x="340" y="492" as="targetPoint" />
          </mxGeometry>
        </mxCell>
        <mxCell id="mW0xl6wsFZFQzlrAiL7S-62" value="" style="endArrow=classic;html=1;rounded=0;" edge="1" parent="WIyWlLk6GJQsqaUBKTNV-1" target="mW0xl6wsFZFQzlrAiL7S-63">
          <mxGeometry width="50" height="50" relative="1" as="geometry">
            <mxPoint x="269.23" y="522" as="sourcePoint" />
            <mxPoint x="270" y="592" as="targetPoint" />
          </mxGeometry>
        </mxCell>
        <mxCell id="mW0xl6wsFZFQzlrAiL7S-63" value="Display incorrect feedback in lblQ1Feedback" style="shape=parallelogram;perimeter=parallelogramPerimeter;whiteSpace=wrap;html=1;fixedSize=1;" vertex="1" parent="WIyWlLk6GJQsqaUBKTNV-1">
          <mxGeometry x="210" y="602.0000000000001" width="120" height="60" as="geometry" />
        </mxCell>
        <mxCell id="mW0xl6wsFZFQzlrAiL7S-64" value="" style="endArrow=classic;html=1;rounded=0;" edge="1" parent="WIyWlLk6GJQsqaUBKTNV-1" target="mW0xl6wsFZFQzlrAiL7S-65">
          <mxGeometry width="50" height="50" relative="1" as="geometry">
            <mxPoint x="859.23" y="522" as="sourcePoint" />
            <mxPoint x="860" y="592" as="targetPoint" />
          </mxGeometry>
        </mxCell>
        <mxCell id="mW0xl6wsFZFQzlrAiL7S-65" value="Display correct&lt;br&gt;feedback in lblQ1Feedback" style="shape=parallelogram;perimeter=parallelogramPerimeter;whiteSpace=wrap;html=1;fixedSize=1;" vertex="1" parent="WIyWlLk6GJQsqaUBKTNV-1">
          <mxGeometry x="800" y="602.0000000000001" width="120" height="60" as="geometry" />
        </mxCell>
        <mxCell id="mW0xl6wsFZFQzlrAiL7S-66" value="Read in&lt;br&gt;Q1 answer" style="shape=parallelogram;perimeter=parallelogramPerimeter;whiteSpace=wrap;html=1;fixedSize=1;" vertex="1" parent="WIyWlLk6GJQsqaUBKTNV-1">
          <mxGeometry x="505" y="290" width="120" height="60" as="geometry" />
        </mxCell>
        <mxCell id="mW0xl6wsFZFQzlrAiL7S-69" value="" style="endArrow=classic;html=1;rounded=0;entryX=0.542;entryY=0;entryDx=0;entryDy=0;entryPerimeter=0;" edge="1" parent="WIyWlLk6GJQsqaUBKTNV-1" target="mW0xl6wsFZFQzlrAiL7S-66">
          <mxGeometry width="50" height="50" relative="1" as="geometry">
            <mxPoint x="570" y="240" as="sourcePoint" />
            <mxPoint x="710" y="290" as="targetPoint" />
          </mxGeometry>
        </mxCell>
        <mxCell id="mW0xl6wsFZFQzlrAiL7S-70" value="User click get Statistics button" style="shape=parallelogram;perimeter=parallelogramPerimeter;whiteSpace=wrap;html=1;fixedSize=1;" vertex="1" parent="WIyWlLk6GJQsqaUBKTNV-1">
          <mxGeometry x="150" y="1440" width="5100" height="90" as="geometry" />
        </mxCell>
        <mxCell id="mW0xl6wsFZFQzlrAiL7S-71" value="" style="endArrow=classic;html=1;rounded=0;" edge="1" parent="WIyWlLk6GJQsqaUBKTNV-1">
          <mxGeometry width="50" height="50" relative="1" as="geometry">
            <mxPoint x="1654.67" y="353" as="sourcePoint" />
            <mxPoint x="1654.67" y="433" as="targetPoint" />
          </mxGeometry>
        </mxCell>
        <mxCell id="mW0xl6wsFZFQzlrAiL7S-72" value="if (lblQ2Response.equals&lt;br&gt;(STRQ2CORRECTANSLOWER) || &lt;br&gt;lblQ2Response.equals&lt;br&gt;(STRQ2CORRECTANSUPPER))" style="rhombus;whiteSpace=wrap;html=1;" vertex="1" parent="WIyWlLk6GJQsqaUBKTNV-1">
          <mxGeometry x="1490" y="433" width="330" height="120" as="geometry" />
        </mxCell>
        <mxCell id="mW0xl6wsFZFQzlrAiL7S-73" value="True" style="rounded=0;whiteSpace=wrap;html=1;" vertex="1" parent="WIyWlLk6GJQsqaUBKTNV-1">
          <mxGeometry x="1890" y="463.00000000000006" width="120" height="60" as="geometry" />
        </mxCell>
        <mxCell id="mW0xl6wsFZFQzlrAiL7S-74" value="" style="endArrow=classic;html=1;rounded=0;entryX=0.5;entryY=0;entryDx=0;entryDy=0;" edge="1" parent="WIyWlLk6GJQsqaUBKTNV-1" target="mW0xl6wsFZFQzlrAiL7S-76">
          <mxGeometry width="50" height="50" relative="1" as="geometry">
            <mxPoint x="1950" y="660" as="sourcePoint" />
            <mxPoint x="1949.67" y="720" as="targetPoint" />
          </mxGeometry>
        </mxCell>
        <mxCell id="mW0xl6wsFZFQzlrAiL7S-75" value="" style="endArrow=classic;html=1;rounded=0;exitX=1;exitY=0.5;exitDx=0;exitDy=0;entryX=0;entryY=0.5;entryDx=0;entryDy=0;" edge="1" parent="WIyWlLk6GJQsqaUBKTNV-1" source="mW0xl6wsFZFQzlrAiL7S-72">
          <mxGeometry width="50" height="50" relative="1" as="geometry">
            <mxPoint x="1920" y="512.6700000000001" as="sourcePoint" />
            <mxPoint x="1890" y="493" as="targetPoint" />
          </mxGeometry>
        </mxCell>
        <mxCell id="mW0xl6wsFZFQzlrAiL7S-76" value="if (intQ2Status == 0)" style="rhombus;whiteSpace=wrap;html=1;" vertex="1" parent="WIyWlLk6GJQsqaUBKTNV-1">
          <mxGeometry x="1890" y="720" width="120" height="80" as="geometry" />
        </mxCell>
        <mxCell id="mW0xl6wsFZFQzlrAiL7S-77" value="" style="endArrow=classic;html=1;rounded=0;" edge="1" parent="WIyWlLk6GJQsqaUBKTNV-1" target="mW0xl6wsFZFQzlrAiL7S-78">
          <mxGeometry width="50" height="50" relative="1" as="geometry">
            <mxPoint x="1890" y="759.6700000000001" as="sourcePoint" />
            <mxPoint x="1800" y="759.6700000000001" as="targetPoint" />
          </mxGeometry>
        </mxCell>
        <mxCell id="mW0xl6wsFZFQzlrAiL7S-78" value="True" style="rounded=0;whiteSpace=wrap;html=1;" vertex="1" parent="WIyWlLk6GJQsqaUBKTNV-1">
          <mxGeometry x="1700" y="730" width="120" height="60" as="geometry" />
        </mxCell>
        <mxCell id="mW0xl6wsFZFQzlrAiL7S-79" value="" style="endArrow=classic;html=1;rounded=0;entryX=0.5;entryY=0;entryDx=0;entryDy=0;" edge="1" parent="WIyWlLk6GJQsqaUBKTNV-1" target="mW0xl6wsFZFQzlrAiL7S-82">
          <mxGeometry width="50" height="50" relative="1" as="geometry">
            <mxPoint x="1760" y="790" as="sourcePoint" />
            <mxPoint x="1760" y="850" as="targetPoint" />
          </mxGeometry>
        </mxCell>
        <mxCell id="mW0xl6wsFZFQzlrAiL7S-80" value="" style="endArrow=classic;html=1;rounded=0;entryX=0.5;entryY=0;entryDx=0;entryDy=0;" edge="1" parent="WIyWlLk6GJQsqaUBKTNV-1">
          <mxGeometry width="50" height="50" relative="1" as="geometry">
            <mxPoint x="1949.67" y="800" as="sourcePoint" />
            <mxPoint x="1949.67" y="860" as="targetPoint" />
          </mxGeometry>
        </mxCell>
        <mxCell id="mW0xl6wsFZFQzlrAiL7S-81" value="False" style="rounded=0;whiteSpace=wrap;html=1;" vertex="1" parent="WIyWlLk6GJQsqaUBKTNV-1">
          <mxGeometry x="1890" y="860" width="120" height="60" as="geometry" />
        </mxCell>
        <mxCell id="mW0xl6wsFZFQzlrAiL7S-82" value="intIncorrect--;" style="shape=label;whiteSpace=wrap;html=1;fixedSize=1;rounded=0;" vertex="1" parent="WIyWlLk6GJQsqaUBKTNV-1">
          <mxGeometry x="1700" y="1000" width="120" height="60" as="geometry" />
        </mxCell>
        <mxCell id="mW0xl6wsFZFQzlrAiL7S-83" value="" style="endArrow=classic;html=1;rounded=0;" edge="1" parent="WIyWlLk6GJQsqaUBKTNV-1">
          <mxGeometry width="50" height="50" relative="1" as="geometry">
            <mxPoint x="1949.67" y="920" as="sourcePoint" />
            <mxPoint x="1949.67" y="990" as="targetPoint" />
          </mxGeometry>
        </mxCell>
        <mxCell id="mW0xl6wsFZFQzlrAiL7S-84" value="" style="endArrow=classic;html=1;rounded=0;exitX=1;exitY=0.5;exitDx=0;exitDy=0;entryX=0;entryY=0.5;entryDx=0;entryDy=0;" edge="1" parent="WIyWlLk6GJQsqaUBKTNV-1" source="mW0xl6wsFZFQzlrAiL7S-82" target="mW0xl6wsFZFQzlrAiL7S-85">
          <mxGeometry width="50" height="50" relative="1" as="geometry">
            <mxPoint x="1920" y="970" as="sourcePoint" />
            <mxPoint x="1910" y="1020" as="targetPoint" />
          </mxGeometry>
        </mxCell>
        <mxCell id="mW0xl6wsFZFQzlrAiL7S-85" value="if (intQ2Status != 1)" style="rhombus;whiteSpace=wrap;html=1;" vertex="1" parent="WIyWlLk6GJQsqaUBKTNV-1">
          <mxGeometry x="1890" y="990" width="120" height="80" as="geometry" />
        </mxCell>
        <mxCell id="mW0xl6wsFZFQzlrAiL7S-86" value="" style="endArrow=classic;html=1;rounded=0;entryX=0;entryY=0.5;entryDx=0;entryDy=0;exitX=1;exitY=0.5;exitDx=0;exitDy=0;" edge="1" parent="WIyWlLk6GJQsqaUBKTNV-1" source="mW0xl6wsFZFQzlrAiL7S-85">
          <mxGeometry width="50" height="50" relative="1" as="geometry">
            <mxPoint x="2020" y="1010" as="sourcePoint" />
            <mxPoint x="2060" y="1030" as="targetPoint" />
          </mxGeometry>
        </mxCell>
        <mxCell id="mW0xl6wsFZFQzlrAiL7S-87" value="True" style="rounded=0;whiteSpace=wrap;html=1;" vertex="1" parent="WIyWlLk6GJQsqaUBKTNV-1">
          <mxGeometry x="2060" y="1000" width="120" height="60" as="geometry" />
        </mxCell>
        <mxCell id="mW0xl6wsFZFQzlrAiL7S-88" value="" style="endArrow=classic;html=1;rounded=0;entryX=0.5;entryY=0;entryDx=0;entryDy=0;" edge="1" parent="WIyWlLk6GJQsqaUBKTNV-1">
          <mxGeometry width="50" height="50" relative="1" as="geometry">
            <mxPoint x="2120" y="1060" as="sourcePoint" />
            <mxPoint x="2120" y="1260" as="targetPoint" />
          </mxGeometry>
        </mxCell>
        <mxCell id="mW0xl6wsFZFQzlrAiL7S-89" value="intCorrect++;" style="shape=label;whiteSpace=wrap;html=1;fixedSize=1;rounded=0;" vertex="1" parent="WIyWlLk6GJQsqaUBKTNV-1">
          <mxGeometry x="2060" y="1256" width="120" height="60" as="geometry" />
        </mxCell>
        <mxCell id="mW0xl6wsFZFQzlrAiL7S-90" value="" style="endArrow=classic;html=1;rounded=0;entryX=1;entryY=0.5;entryDx=0;entryDy=0;" edge="1" parent="WIyWlLk6GJQsqaUBKTNV-1" target="mW0xl6wsFZFQzlrAiL7S-94">
          <mxGeometry width="50" height="50" relative="1" as="geometry">
            <mxPoint x="2070" y="1290" as="sourcePoint" />
            <mxPoint x="1990" y="1289.67" as="targetPoint" />
          </mxGeometry>
        </mxCell>
        <mxCell id="mW0xl6wsFZFQzlrAiL7S-91" value="" style="endArrow=classic;html=1;rounded=0;entryX=0.5;entryY=0;entryDx=0;entryDy=0;" edge="1" parent="WIyWlLk6GJQsqaUBKTNV-1">
          <mxGeometry width="50" height="50" relative="1" as="geometry">
            <mxPoint x="1949.67" y="1070" as="sourcePoint" />
            <mxPoint x="1949.67" y="1130" as="targetPoint" />
          </mxGeometry>
        </mxCell>
        <mxCell id="mW0xl6wsFZFQzlrAiL7S-92" value="False" style="rounded=0;whiteSpace=wrap;html=1;" vertex="1" parent="WIyWlLk6GJQsqaUBKTNV-1">
          <mxGeometry x="1890" y="1130" width="120" height="60" as="geometry" />
        </mxCell>
        <mxCell id="mW0xl6wsFZFQzlrAiL7S-93" value="" style="endArrow=classic;html=1;rounded=0;" edge="1" parent="WIyWlLk6GJQsqaUBKTNV-1">
          <mxGeometry width="50" height="50" relative="1" as="geometry">
            <mxPoint x="1949.67" y="1190" as="sourcePoint" />
            <mxPoint x="1949.67" y="1260" as="targetPoint" />
          </mxGeometry>
        </mxCell>
        <mxCell id="mW0xl6wsFZFQzlrAiL7S-94" value="intQ2Status=1;" style="shape=label;whiteSpace=wrap;html=1;fixedSize=1;rounded=0;" vertex="1" parent="WIyWlLk6GJQsqaUBKTNV-1">
          <mxGeometry x="1890" y="1260" width="120" height="60" as="geometry" />
        </mxCell>
        <mxCell id="mW0xl6wsFZFQzlrAiL7S-95" value="" style="endArrow=classic;html=1;rounded=0;" edge="1" parent="WIyWlLk6GJQsqaUBKTNV-1">
          <mxGeometry width="50" height="50" relative="1" as="geometry">
            <mxPoint x="1949.6599999999999" y="1320" as="sourcePoint" />
            <mxPoint x="1949.6599999999999" y="1440" as="targetPoint" />
          </mxGeometry>
        </mxCell>
        <mxCell id="mW0xl6wsFZFQzlrAiL7S-96" value="False" style="rounded=0;whiteSpace=wrap;html=1;" vertex="1" parent="WIyWlLk6GJQsqaUBKTNV-1">
          <mxGeometry x="1300" y="463.00000000000006" width="120" height="60" as="geometry" />
        </mxCell>
        <mxCell id="mW0xl6wsFZFQzlrAiL7S-97" value="" style="endArrow=classic;html=1;rounded=0;entryX=0.5;entryY=0;entryDx=0;entryDy=0;" edge="1" parent="WIyWlLk6GJQsqaUBKTNV-1" target="mW0xl6wsFZFQzlrAiL7S-98">
          <mxGeometry width="50" height="50" relative="1" as="geometry">
            <mxPoint x="1360" y="660" as="sourcePoint" />
            <mxPoint x="1359.67" y="720" as="targetPoint" />
          </mxGeometry>
        </mxCell>
        <mxCell id="mW0xl6wsFZFQzlrAiL7S-98" value="if (intQ2Status == 1)" style="rhombus;whiteSpace=wrap;html=1;" vertex="1" parent="WIyWlLk6GJQsqaUBKTNV-1">
          <mxGeometry x="1300" y="720" width="120" height="80" as="geometry" />
        </mxCell>
        <mxCell id="mW0xl6wsFZFQzlrAiL7S-99" value="" style="endArrow=classic;html=1;rounded=0;" edge="1" parent="WIyWlLk6GJQsqaUBKTNV-1" target="mW0xl6wsFZFQzlrAiL7S-100">
          <mxGeometry width="50" height="50" relative="1" as="geometry">
            <mxPoint x="1300" y="759.6700000000001" as="sourcePoint" />
            <mxPoint x="1210" y="759.6700000000001" as="targetPoint" />
          </mxGeometry>
        </mxCell>
        <mxCell id="mW0xl6wsFZFQzlrAiL7S-100" value="True" style="rounded=0;whiteSpace=wrap;html=1;" vertex="1" parent="WIyWlLk6GJQsqaUBKTNV-1">
          <mxGeometry x="1110" y="730" width="120" height="60" as="geometry" />
        </mxCell>
        <mxCell id="mW0xl6wsFZFQzlrAiL7S-101" value="" style="endArrow=classic;html=1;rounded=0;entryX=0.5;entryY=0;entryDx=0;entryDy=0;" edge="1" parent="WIyWlLk6GJQsqaUBKTNV-1">
          <mxGeometry width="50" height="50" relative="1" as="geometry">
            <mxPoint x="1170" y="790" as="sourcePoint" />
            <mxPoint x="1170" y="999.9999999999998" as="targetPoint" />
          </mxGeometry>
        </mxCell>
        <mxCell id="mW0xl6wsFZFQzlrAiL7S-102" value="" style="endArrow=classic;html=1;rounded=0;entryX=0.5;entryY=0;entryDx=0;entryDy=0;" edge="1" parent="WIyWlLk6GJQsqaUBKTNV-1">
          <mxGeometry width="50" height="50" relative="1" as="geometry">
            <mxPoint x="1359.67" y="800" as="sourcePoint" />
            <mxPoint x="1359.67" y="860" as="targetPoint" />
          </mxGeometry>
        </mxCell>
        <mxCell id="mW0xl6wsFZFQzlrAiL7S-103" value="False" style="rounded=0;whiteSpace=wrap;html=1;" vertex="1" parent="WIyWlLk6GJQsqaUBKTNV-1">
          <mxGeometry x="1300" y="860" width="120" height="60" as="geometry" />
        </mxCell>
        <mxCell id="mW0xl6wsFZFQzlrAiL7S-105" value="" style="endArrow=classic;html=1;rounded=0;" edge="1" parent="WIyWlLk6GJQsqaUBKTNV-1">
          <mxGeometry width="50" height="50" relative="1" as="geometry">
            <mxPoint x="1359.67" y="920" as="sourcePoint" />
            <mxPoint x="1359.67" y="990" as="targetPoint" />
          </mxGeometry>
        </mxCell>
        <mxCell id="mW0xl6wsFZFQzlrAiL7S-106" value="" style="endArrow=classic;html=1;rounded=0;exitX=1;exitY=0.5;exitDx=0;exitDy=0;entryX=0;entryY=0.5;entryDx=0;entryDy=0;" edge="1" parent="WIyWlLk6GJQsqaUBKTNV-1" target="mW0xl6wsFZFQzlrAiL7S-107">
          <mxGeometry width="50" height="50" relative="1" as="geometry">
            <mxPoint x="1220" y="1029.9999999999998" as="sourcePoint" />
            <mxPoint x="1320" y="1020" as="targetPoint" />
          </mxGeometry>
        </mxCell>
        <mxCell id="mW0xl6wsFZFQzlrAiL7S-107" value="if (intQ2Status != 0)" style="rhombus;whiteSpace=wrap;html=1;" vertex="1" parent="WIyWlLk6GJQsqaUBKTNV-1">
          <mxGeometry x="1300" y="990" width="120" height="80" as="geometry" />
        </mxCell>
        <mxCell id="mW0xl6wsFZFQzlrAiL7S-108" value="" style="endArrow=classic;html=1;rounded=0;entryX=0;entryY=0.5;entryDx=0;entryDy=0;exitX=1;exitY=0.5;exitDx=0;exitDy=0;" edge="1" parent="WIyWlLk6GJQsqaUBKTNV-1" source="mW0xl6wsFZFQzlrAiL7S-107" target="mW0xl6wsFZFQzlrAiL7S-109">
          <mxGeometry width="50" height="50" relative="1" as="geometry">
            <mxPoint x="1430" y="1010" as="sourcePoint" />
            <mxPoint x="1410" y="1029.8476923076923" as="targetPoint" />
          </mxGeometry>
        </mxCell>
        <mxCell id="mW0xl6wsFZFQzlrAiL7S-109" value="True" style="rounded=0;whiteSpace=wrap;html=1;" vertex="1" parent="WIyWlLk6GJQsqaUBKTNV-1">
          <mxGeometry x="1470" y="1000" width="120" height="60" as="geometry" />
        </mxCell>
        <mxCell id="mW0xl6wsFZFQzlrAiL7S-110" value="" style="endArrow=classic;html=1;rounded=0;entryX=0.5;entryY=0;entryDx=0;entryDy=0;" edge="1" parent="WIyWlLk6GJQsqaUBKTNV-1">
          <mxGeometry width="50" height="50" relative="1" as="geometry">
            <mxPoint x="1530" y="1060" as="sourcePoint" />
            <mxPoint x="1530" y="1259.9999999999998" as="targetPoint" />
          </mxGeometry>
        </mxCell>
        <mxCell id="mW0xl6wsFZFQzlrAiL7S-112" value="" style="endArrow=classic;html=1;rounded=0;entryX=1;entryY=0.5;entryDx=0;entryDy=0;" edge="1" parent="WIyWlLk6GJQsqaUBKTNV-1" target="mW0xl6wsFZFQzlrAiL7S-116">
          <mxGeometry width="50" height="50" relative="1" as="geometry">
            <mxPoint x="1480" y="1289.9999999999998" as="sourcePoint" />
            <mxPoint x="1400" y="1289.67" as="targetPoint" />
          </mxGeometry>
        </mxCell>
        <mxCell id="mW0xl6wsFZFQzlrAiL7S-113" value="" style="endArrow=classic;html=1;rounded=0;entryX=0.5;entryY=0;entryDx=0;entryDy=0;" edge="1" parent="WIyWlLk6GJQsqaUBKTNV-1">
          <mxGeometry width="50" height="50" relative="1" as="geometry">
            <mxPoint x="1359.67" y="1070" as="sourcePoint" />
            <mxPoint x="1359.67" y="1130" as="targetPoint" />
          </mxGeometry>
        </mxCell>
        <mxCell id="mW0xl6wsFZFQzlrAiL7S-114" value="False" style="rounded=0;whiteSpace=wrap;html=1;" vertex="1" parent="WIyWlLk6GJQsqaUBKTNV-1">
          <mxGeometry x="1300" y="1130" width="120" height="60" as="geometry" />
        </mxCell>
        <mxCell id="mW0xl6wsFZFQzlrAiL7S-115" value="" style="endArrow=classic;html=1;rounded=0;" edge="1" parent="WIyWlLk6GJQsqaUBKTNV-1">
          <mxGeometry width="50" height="50" relative="1" as="geometry">
            <mxPoint x="1359.67" y="1190" as="sourcePoint" />
            <mxPoint x="1359.67" y="1260" as="targetPoint" />
          </mxGeometry>
        </mxCell>
        <mxCell id="mW0xl6wsFZFQzlrAiL7S-116" value="intQ2Status=0;" style="shape=label;whiteSpace=wrap;html=1;fixedSize=1;rounded=0;" vertex="1" parent="WIyWlLk6GJQsqaUBKTNV-1">
          <mxGeometry x="1300" y="1260" width="120" height="60" as="geometry" />
        </mxCell>
        <mxCell id="mW0xl6wsFZFQzlrAiL7S-117" value="" style="endArrow=classic;html=1;rounded=0;" edge="1" parent="WIyWlLk6GJQsqaUBKTNV-1">
          <mxGeometry width="50" height="50" relative="1" as="geometry">
            <mxPoint x="1359.6599999999999" y="1320" as="sourcePoint" />
            <mxPoint x="1359.6599999999999" y="1440" as="targetPoint" />
          </mxGeometry>
        </mxCell>
        <mxCell id="mW0xl6wsFZFQzlrAiL7S-118" value="" style="endArrow=classic;html=1;rounded=0;exitX=1;exitY=0.5;exitDx=0;exitDy=0;entryX=1;entryY=0.5;entryDx=0;entryDy=0;" edge="1" parent="WIyWlLk6GJQsqaUBKTNV-1" target="mW0xl6wsFZFQzlrAiL7S-96">
          <mxGeometry width="50" height="50" relative="1" as="geometry">
            <mxPoint x="1490" y="492.74" as="sourcePoint" />
            <mxPoint x="1430" y="493" as="targetPoint" />
          </mxGeometry>
        </mxCell>
        <mxCell id="mW0xl6wsFZFQzlrAiL7S-119" value="" style="endArrow=classic;html=1;rounded=0;" edge="1" parent="WIyWlLk6GJQsqaUBKTNV-1" target="mW0xl6wsFZFQzlrAiL7S-120">
          <mxGeometry width="50" height="50" relative="1" as="geometry">
            <mxPoint x="1359.23" y="523" as="sourcePoint" />
            <mxPoint x="1360" y="593" as="targetPoint" />
          </mxGeometry>
        </mxCell>
        <mxCell id="mW0xl6wsFZFQzlrAiL7S-120" value="Display incorrect feedback in lblQ2Feeback" style="shape=parallelogram;perimeter=parallelogramPerimeter;whiteSpace=wrap;html=1;fixedSize=1;" vertex="1" parent="WIyWlLk6GJQsqaUBKTNV-1">
          <mxGeometry x="1300" y="603.0000000000001" width="120" height="60" as="geometry" />
        </mxCell>
        <mxCell id="mW0xl6wsFZFQzlrAiL7S-121" value="" style="endArrow=classic;html=1;rounded=0;" edge="1" parent="WIyWlLk6GJQsqaUBKTNV-1" target="mW0xl6wsFZFQzlrAiL7S-122">
          <mxGeometry width="50" height="50" relative="1" as="geometry">
            <mxPoint x="1949.23" y="523" as="sourcePoint" />
            <mxPoint x="1950" y="593" as="targetPoint" />
          </mxGeometry>
        </mxCell>
        <mxCell id="mW0xl6wsFZFQzlrAiL7S-122" value="Display correct&lt;br&gt;feedback in lblQ2Feedback" style="shape=parallelogram;perimeter=parallelogramPerimeter;whiteSpace=wrap;html=1;fixedSize=1;" vertex="1" parent="WIyWlLk6GJQsqaUBKTNV-1">
          <mxGeometry x="1890" y="603.0000000000001" width="120" height="60" as="geometry" />
        </mxCell>
        <mxCell id="mW0xl6wsFZFQzlrAiL7S-123" value="Read in&lt;br&gt;Q2 answer" style="shape=parallelogram;perimeter=parallelogramPerimeter;whiteSpace=wrap;html=1;fixedSize=1;" vertex="1" parent="WIyWlLk6GJQsqaUBKTNV-1">
          <mxGeometry x="1595" y="291" width="120" height="60" as="geometry" />
        </mxCell>
        <mxCell id="mW0xl6wsFZFQzlrAiL7S-124" value="" style="endArrow=classic;html=1;rounded=0;entryX=0.542;entryY=0;entryDx=0;entryDy=0;entryPerimeter=0;" edge="1" parent="WIyWlLk6GJQsqaUBKTNV-1" target="mW0xl6wsFZFQzlrAiL7S-123">
          <mxGeometry width="50" height="50" relative="1" as="geometry">
            <mxPoint x="1660" y="241" as="sourcePoint" />
            <mxPoint x="1800" y="291" as="targetPoint" />
          </mxGeometry>
        </mxCell>
        <mxCell id="mW0xl6wsFZFQzlrAiL7S-125" value="" style="endArrow=classic;html=1;rounded=0;" edge="1" parent="WIyWlLk6GJQsqaUBKTNV-1">
          <mxGeometry width="50" height="50" relative="1" as="geometry">
            <mxPoint x="2744.67" y="353" as="sourcePoint" />
            <mxPoint x="2744.67" y="433" as="targetPoint" />
          </mxGeometry>
        </mxCell>
        <mxCell id="mW0xl6wsFZFQzlrAiL7S-126" value="if (lblQ3Response.equals&lt;br&gt;(STRQ3CORRECTANSLOWER) || &lt;br&gt;lblQ3Response.equals&lt;br&gt;(STRQ3CORRECTANSUPPER))" style="rhombus;whiteSpace=wrap;html=1;" vertex="1" parent="WIyWlLk6GJQsqaUBKTNV-1">
          <mxGeometry x="2580" y="433" width="330" height="120" as="geometry" />
        </mxCell>
        <mxCell id="mW0xl6wsFZFQzlrAiL7S-127" value="True" style="rounded=0;whiteSpace=wrap;html=1;" vertex="1" parent="WIyWlLk6GJQsqaUBKTNV-1">
          <mxGeometry x="2980" y="463.00000000000006" width="120" height="60" as="geometry" />
        </mxCell>
        <mxCell id="mW0xl6wsFZFQzlrAiL7S-128" value="" style="endArrow=classic;html=1;rounded=0;entryX=0.5;entryY=0;entryDx=0;entryDy=0;" edge="1" parent="WIyWlLk6GJQsqaUBKTNV-1" target="mW0xl6wsFZFQzlrAiL7S-130">
          <mxGeometry width="50" height="50" relative="1" as="geometry">
            <mxPoint x="3040" y="660" as="sourcePoint" />
            <mxPoint x="3039.67" y="720" as="targetPoint" />
          </mxGeometry>
        </mxCell>
        <mxCell id="mW0xl6wsFZFQzlrAiL7S-129" value="" style="endArrow=classic;html=1;rounded=0;exitX=1;exitY=0.5;exitDx=0;exitDy=0;entryX=0;entryY=0.5;entryDx=0;entryDy=0;" edge="1" parent="WIyWlLk6GJQsqaUBKTNV-1" source="mW0xl6wsFZFQzlrAiL7S-126">
          <mxGeometry width="50" height="50" relative="1" as="geometry">
            <mxPoint x="3010" y="512.6700000000001" as="sourcePoint" />
            <mxPoint x="2980" y="493" as="targetPoint" />
          </mxGeometry>
        </mxCell>
        <mxCell id="mW0xl6wsFZFQzlrAiL7S-130" value="if (intQ3Status == 0)" style="rhombus;whiteSpace=wrap;html=1;" vertex="1" parent="WIyWlLk6GJQsqaUBKTNV-1">
          <mxGeometry x="2980" y="720" width="120" height="80" as="geometry" />
        </mxCell>
        <mxCell id="mW0xl6wsFZFQzlrAiL7S-131" value="" style="endArrow=classic;html=1;rounded=0;" edge="1" parent="WIyWlLk6GJQsqaUBKTNV-1" target="mW0xl6wsFZFQzlrAiL7S-132">
          <mxGeometry width="50" height="50" relative="1" as="geometry">
            <mxPoint x="2980" y="759.6700000000001" as="sourcePoint" />
            <mxPoint x="2890" y="759.6700000000001" as="targetPoint" />
          </mxGeometry>
        </mxCell>
        <mxCell id="mW0xl6wsFZFQzlrAiL7S-132" value="True" style="rounded=0;whiteSpace=wrap;html=1;" vertex="1" parent="WIyWlLk6GJQsqaUBKTNV-1">
          <mxGeometry x="2790" y="730" width="120" height="60" as="geometry" />
        </mxCell>
        <mxCell id="mW0xl6wsFZFQzlrAiL7S-133" value="" style="endArrow=classic;html=1;rounded=0;entryX=0.5;entryY=0;entryDx=0;entryDy=0;" edge="1" parent="WIyWlLk6GJQsqaUBKTNV-1" target="mW0xl6wsFZFQzlrAiL7S-136">
          <mxGeometry width="50" height="50" relative="1" as="geometry">
            <mxPoint x="2850" y="790" as="sourcePoint" />
            <mxPoint x="2850" y="850" as="targetPoint" />
          </mxGeometry>
        </mxCell>
        <mxCell id="mW0xl6wsFZFQzlrAiL7S-134" value="" style="endArrow=classic;html=1;rounded=0;entryX=0.5;entryY=0;entryDx=0;entryDy=0;" edge="1" parent="WIyWlLk6GJQsqaUBKTNV-1">
          <mxGeometry width="50" height="50" relative="1" as="geometry">
            <mxPoint x="3039.67" y="800" as="sourcePoint" />
            <mxPoint x="3039.67" y="860" as="targetPoint" />
          </mxGeometry>
        </mxCell>
        <mxCell id="mW0xl6wsFZFQzlrAiL7S-135" value="False" style="rounded=0;whiteSpace=wrap;html=1;" vertex="1" parent="WIyWlLk6GJQsqaUBKTNV-1">
          <mxGeometry x="2980" y="860" width="120" height="60" as="geometry" />
        </mxCell>
        <mxCell id="mW0xl6wsFZFQzlrAiL7S-136" value="intIncorrect--;" style="shape=label;whiteSpace=wrap;html=1;fixedSize=1;rounded=0;" vertex="1" parent="WIyWlLk6GJQsqaUBKTNV-1">
          <mxGeometry x="2790" y="1000" width="120" height="60" as="geometry" />
        </mxCell>
        <mxCell id="mW0xl6wsFZFQzlrAiL7S-137" value="" style="endArrow=classic;html=1;rounded=0;" edge="1" parent="WIyWlLk6GJQsqaUBKTNV-1">
          <mxGeometry width="50" height="50" relative="1" as="geometry">
            <mxPoint x="3039.67" y="920" as="sourcePoint" />
            <mxPoint x="3039.67" y="990" as="targetPoint" />
          </mxGeometry>
        </mxCell>
        <mxCell id="mW0xl6wsFZFQzlrAiL7S-138" value="" style="endArrow=classic;html=1;rounded=0;exitX=1;exitY=0.5;exitDx=0;exitDy=0;entryX=0;entryY=0.5;entryDx=0;entryDy=0;" edge="1" parent="WIyWlLk6GJQsqaUBKTNV-1" source="mW0xl6wsFZFQzlrAiL7S-136" target="mW0xl6wsFZFQzlrAiL7S-139">
          <mxGeometry width="50" height="50" relative="1" as="geometry">
            <mxPoint x="3010" y="970" as="sourcePoint" />
            <mxPoint x="3000" y="1020" as="targetPoint" />
          </mxGeometry>
        </mxCell>
        <mxCell id="mW0xl6wsFZFQzlrAiL7S-139" value="if (intQ3Status != 1)" style="rhombus;whiteSpace=wrap;html=1;" vertex="1" parent="WIyWlLk6GJQsqaUBKTNV-1">
          <mxGeometry x="2980" y="990" width="120" height="80" as="geometry" />
        </mxCell>
        <mxCell id="mW0xl6wsFZFQzlrAiL7S-140" value="" style="endArrow=classic;html=1;rounded=0;entryX=0;entryY=0.5;entryDx=0;entryDy=0;exitX=1;exitY=0.5;exitDx=0;exitDy=0;" edge="1" parent="WIyWlLk6GJQsqaUBKTNV-1" source="mW0xl6wsFZFQzlrAiL7S-139">
          <mxGeometry width="50" height="50" relative="1" as="geometry">
            <mxPoint x="3110" y="1010" as="sourcePoint" />
            <mxPoint x="3150" y="1030" as="targetPoint" />
          </mxGeometry>
        </mxCell>
        <mxCell id="mW0xl6wsFZFQzlrAiL7S-141" value="True" style="rounded=0;whiteSpace=wrap;html=1;" vertex="1" parent="WIyWlLk6GJQsqaUBKTNV-1">
          <mxGeometry x="3150" y="1000" width="120" height="60" as="geometry" />
        </mxCell>
        <mxCell id="mW0xl6wsFZFQzlrAiL7S-142" value="" style="endArrow=classic;html=1;rounded=0;entryX=0.5;entryY=0;entryDx=0;entryDy=0;" edge="1" parent="WIyWlLk6GJQsqaUBKTNV-1">
          <mxGeometry width="50" height="50" relative="1" as="geometry">
            <mxPoint x="3210" y="1060" as="sourcePoint" />
            <mxPoint x="3210" y="1260" as="targetPoint" />
          </mxGeometry>
        </mxCell>
        <mxCell id="mW0xl6wsFZFQzlrAiL7S-143" value="intCorrect++;" style="shape=label;whiteSpace=wrap;html=1;fixedSize=1;rounded=0;" vertex="1" parent="WIyWlLk6GJQsqaUBKTNV-1">
          <mxGeometry x="3150" y="1256" width="120" height="60" as="geometry" />
        </mxCell>
        <mxCell id="mW0xl6wsFZFQzlrAiL7S-144" value="" style="endArrow=classic;html=1;rounded=0;entryX=1;entryY=0.5;entryDx=0;entryDy=0;" edge="1" parent="WIyWlLk6GJQsqaUBKTNV-1" target="mW0xl6wsFZFQzlrAiL7S-148">
          <mxGeometry width="50" height="50" relative="1" as="geometry">
            <mxPoint x="3160" y="1290" as="sourcePoint" />
            <mxPoint x="3080" y="1289.67" as="targetPoint" />
          </mxGeometry>
        </mxCell>
        <mxCell id="mW0xl6wsFZFQzlrAiL7S-145" value="" style="endArrow=classic;html=1;rounded=0;entryX=0.5;entryY=0;entryDx=0;entryDy=0;" edge="1" parent="WIyWlLk6GJQsqaUBKTNV-1">
          <mxGeometry width="50" height="50" relative="1" as="geometry">
            <mxPoint x="3039.67" y="1070" as="sourcePoint" />
            <mxPoint x="3039.67" y="1130" as="targetPoint" />
          </mxGeometry>
        </mxCell>
        <mxCell id="mW0xl6wsFZFQzlrAiL7S-146" value="False" style="rounded=0;whiteSpace=wrap;html=1;" vertex="1" parent="WIyWlLk6GJQsqaUBKTNV-1">
          <mxGeometry x="2980" y="1130" width="120" height="60" as="geometry" />
        </mxCell>
        <mxCell id="mW0xl6wsFZFQzlrAiL7S-147" value="" style="endArrow=classic;html=1;rounded=0;" edge="1" parent="WIyWlLk6GJQsqaUBKTNV-1">
          <mxGeometry width="50" height="50" relative="1" as="geometry">
            <mxPoint x="3039.67" y="1190" as="sourcePoint" />
            <mxPoint x="3039.67" y="1260" as="targetPoint" />
          </mxGeometry>
        </mxCell>
        <mxCell id="mW0xl6wsFZFQzlrAiL7S-148" value="intQ3Status=1;" style="shape=label;whiteSpace=wrap;html=1;fixedSize=1;rounded=0;" vertex="1" parent="WIyWlLk6GJQsqaUBKTNV-1">
          <mxGeometry x="2980" y="1260" width="120" height="60" as="geometry" />
        </mxCell>
        <mxCell id="mW0xl6wsFZFQzlrAiL7S-149" value="" style="endArrow=classic;html=1;rounded=0;" edge="1" parent="WIyWlLk6GJQsqaUBKTNV-1">
          <mxGeometry width="50" height="50" relative="1" as="geometry">
            <mxPoint x="3039.66" y="1320" as="sourcePoint" />
            <mxPoint x="3039.66" y="1440" as="targetPoint" />
          </mxGeometry>
        </mxCell>
        <mxCell id="mW0xl6wsFZFQzlrAiL7S-150" value="False" style="rounded=0;whiteSpace=wrap;html=1;" vertex="1" parent="WIyWlLk6GJQsqaUBKTNV-1">
          <mxGeometry x="2390" y="463.00000000000006" width="120" height="60" as="geometry" />
        </mxCell>
        <mxCell id="mW0xl6wsFZFQzlrAiL7S-151" value="" style="endArrow=classic;html=1;rounded=0;entryX=0.5;entryY=0;entryDx=0;entryDy=0;" edge="1" parent="WIyWlLk6GJQsqaUBKTNV-1" target="mW0xl6wsFZFQzlrAiL7S-152">
          <mxGeometry width="50" height="50" relative="1" as="geometry">
            <mxPoint x="2450" y="660" as="sourcePoint" />
            <mxPoint x="2449.67" y="720" as="targetPoint" />
          </mxGeometry>
        </mxCell>
        <mxCell id="mW0xl6wsFZFQzlrAiL7S-152" value="if (intQ3Status == 1)" style="rhombus;whiteSpace=wrap;html=1;" vertex="1" parent="WIyWlLk6GJQsqaUBKTNV-1">
          <mxGeometry x="2390" y="720" width="120" height="80" as="geometry" />
        </mxCell>
        <mxCell id="mW0xl6wsFZFQzlrAiL7S-153" value="" style="endArrow=classic;html=1;rounded=0;" edge="1" parent="WIyWlLk6GJQsqaUBKTNV-1" target="mW0xl6wsFZFQzlrAiL7S-154">
          <mxGeometry width="50" height="50" relative="1" as="geometry">
            <mxPoint x="2390" y="759.6700000000001" as="sourcePoint" />
            <mxPoint x="2300" y="759.6700000000001" as="targetPoint" />
          </mxGeometry>
        </mxCell>
        <mxCell id="mW0xl6wsFZFQzlrAiL7S-154" value="True" style="rounded=0;whiteSpace=wrap;html=1;" vertex="1" parent="WIyWlLk6GJQsqaUBKTNV-1">
          <mxGeometry x="2200" y="730" width="120" height="60" as="geometry" />
        </mxCell>
        <mxCell id="mW0xl6wsFZFQzlrAiL7S-155" value="" style="endArrow=classic;html=1;rounded=0;entryX=0.5;entryY=0;entryDx=0;entryDy=0;" edge="1" parent="WIyWlLk6GJQsqaUBKTNV-1" target="mW0xl6wsFZFQzlrAiL7S-158">
          <mxGeometry width="50" height="50" relative="1" as="geometry">
            <mxPoint x="2260" y="790" as="sourcePoint" />
            <mxPoint x="2260" y="850" as="targetPoint" />
          </mxGeometry>
        </mxCell>
        <mxCell id="mW0xl6wsFZFQzlrAiL7S-156" value="" style="endArrow=classic;html=1;rounded=0;entryX=0.5;entryY=0;entryDx=0;entryDy=0;" edge="1" parent="WIyWlLk6GJQsqaUBKTNV-1">
          <mxGeometry width="50" height="50" relative="1" as="geometry">
            <mxPoint x="2449.67" y="800" as="sourcePoint" />
            <mxPoint x="2449.67" y="860" as="targetPoint" />
          </mxGeometry>
        </mxCell>
        <mxCell id="mW0xl6wsFZFQzlrAiL7S-157" value="False" style="rounded=0;whiteSpace=wrap;html=1;" vertex="1" parent="WIyWlLk6GJQsqaUBKTNV-1">
          <mxGeometry x="2390" y="860" width="120" height="60" as="geometry" />
        </mxCell>
        <mxCell id="mW0xl6wsFZFQzlrAiL7S-158" value="intCorrect--;" style="shape=label;whiteSpace=wrap;html=1;fixedSize=1;rounded=0;" vertex="1" parent="WIyWlLk6GJQsqaUBKTNV-1">
          <mxGeometry x="2200" y="1000" width="120" height="60" as="geometry" />
        </mxCell>
        <mxCell id="mW0xl6wsFZFQzlrAiL7S-159" value="" style="endArrow=classic;html=1;rounded=0;" edge="1" parent="WIyWlLk6GJQsqaUBKTNV-1">
          <mxGeometry width="50" height="50" relative="1" as="geometry">
            <mxPoint x="2449.67" y="920" as="sourcePoint" />
            <mxPoint x="2449.67" y="990" as="targetPoint" />
          </mxGeometry>
        </mxCell>
        <mxCell id="mW0xl6wsFZFQzlrAiL7S-160" value="" style="endArrow=classic;html=1;rounded=0;exitX=1;exitY=0.5;exitDx=0;exitDy=0;entryX=0;entryY=0.5;entryDx=0;entryDy=0;" edge="1" parent="WIyWlLk6GJQsqaUBKTNV-1" source="mW0xl6wsFZFQzlrAiL7S-158" target="mW0xl6wsFZFQzlrAiL7S-161">
          <mxGeometry width="50" height="50" relative="1" as="geometry">
            <mxPoint x="2420" y="970" as="sourcePoint" />
            <mxPoint x="2410" y="1020" as="targetPoint" />
          </mxGeometry>
        </mxCell>
        <mxCell id="mW0xl6wsFZFQzlrAiL7S-161" value="if (intQ3Status != 0)" style="rhombus;whiteSpace=wrap;html=1;" vertex="1" parent="WIyWlLk6GJQsqaUBKTNV-1">
          <mxGeometry x="2390" y="990" width="120" height="80" as="geometry" />
        </mxCell>
        <mxCell id="mW0xl6wsFZFQzlrAiL7S-162" value="" style="endArrow=classic;html=1;rounded=0;entryX=0;entryY=0.5;entryDx=0;entryDy=0;exitX=1;exitY=0.5;exitDx=0;exitDy=0;" edge="1" parent="WIyWlLk6GJQsqaUBKTNV-1" source="mW0xl6wsFZFQzlrAiL7S-161" target="mW0xl6wsFZFQzlrAiL7S-163">
          <mxGeometry width="50" height="50" relative="1" as="geometry">
            <mxPoint x="2520" y="1010" as="sourcePoint" />
            <mxPoint x="2500" y="1029.8476923076923" as="targetPoint" />
          </mxGeometry>
        </mxCell>
        <mxCell id="mW0xl6wsFZFQzlrAiL7S-163" value="True" style="rounded=0;whiteSpace=wrap;html=1;" vertex="1" parent="WIyWlLk6GJQsqaUBKTNV-1">
          <mxGeometry x="2560" y="1000" width="120" height="60" as="geometry" />
        </mxCell>
        <mxCell id="mW0xl6wsFZFQzlrAiL7S-164" value="" style="endArrow=classic;html=1;rounded=0;entryX=0.5;entryY=0;entryDx=0;entryDy=0;" edge="1" parent="WIyWlLk6GJQsqaUBKTNV-1" target="mW0xl6wsFZFQzlrAiL7S-165">
          <mxGeometry width="50" height="50" relative="1" as="geometry">
            <mxPoint x="2620" y="1060" as="sourcePoint" />
            <mxPoint x="2620" y="1120" as="targetPoint" />
          </mxGeometry>
        </mxCell>
        <mxCell id="mW0xl6wsFZFQzlrAiL7S-165" value="intIncorrect++;" style="shape=label;whiteSpace=wrap;html=1;fixedSize=1;rounded=0;" vertex="1" parent="WIyWlLk6GJQsqaUBKTNV-1">
          <mxGeometry x="2560" y="1260" width="120" height="60" as="geometry" />
        </mxCell>
        <mxCell id="mW0xl6wsFZFQzlrAiL7S-166" value="" style="endArrow=classic;html=1;rounded=0;entryX=1;entryY=0.5;entryDx=0;entryDy=0;" edge="1" parent="WIyWlLk6GJQsqaUBKTNV-1" source="mW0xl6wsFZFQzlrAiL7S-165" target="mW0xl6wsFZFQzlrAiL7S-170">
          <mxGeometry width="50" height="50" relative="1" as="geometry">
            <mxPoint x="2570" y="1289.67" as="sourcePoint" />
            <mxPoint x="2490" y="1289.67" as="targetPoint" />
          </mxGeometry>
        </mxCell>
        <mxCell id="mW0xl6wsFZFQzlrAiL7S-167" value="" style="endArrow=classic;html=1;rounded=0;entryX=0.5;entryY=0;entryDx=0;entryDy=0;" edge="1" parent="WIyWlLk6GJQsqaUBKTNV-1">
          <mxGeometry width="50" height="50" relative="1" as="geometry">
            <mxPoint x="2449.67" y="1070" as="sourcePoint" />
            <mxPoint x="2449.67" y="1130" as="targetPoint" />
          </mxGeometry>
        </mxCell>
        <mxCell id="mW0xl6wsFZFQzlrAiL7S-168" value="False" style="rounded=0;whiteSpace=wrap;html=1;" vertex="1" parent="WIyWlLk6GJQsqaUBKTNV-1">
          <mxGeometry x="2390" y="1130" width="120" height="60" as="geometry" />
        </mxCell>
        <mxCell id="mW0xl6wsFZFQzlrAiL7S-169" value="" style="endArrow=classic;html=1;rounded=0;" edge="1" parent="WIyWlLk6GJQsqaUBKTNV-1">
          <mxGeometry width="50" height="50" relative="1" as="geometry">
            <mxPoint x="2449.67" y="1190" as="sourcePoint" />
            <mxPoint x="2449.67" y="1260" as="targetPoint" />
          </mxGeometry>
        </mxCell>
        <mxCell id="mW0xl6wsFZFQzlrAiL7S-170" value="intQ3Status=0;" style="shape=label;whiteSpace=wrap;html=1;fixedSize=1;rounded=0;" vertex="1" parent="WIyWlLk6GJQsqaUBKTNV-1">
          <mxGeometry x="2390" y="1260" width="120" height="60" as="geometry" />
        </mxCell>
        <mxCell id="mW0xl6wsFZFQzlrAiL7S-171" value="" style="endArrow=classic;html=1;rounded=0;" edge="1" parent="WIyWlLk6GJQsqaUBKTNV-1">
          <mxGeometry width="50" height="50" relative="1" as="geometry">
            <mxPoint x="2449.66" y="1320" as="sourcePoint" />
            <mxPoint x="2449.66" y="1440" as="targetPoint" />
          </mxGeometry>
        </mxCell>
        <mxCell id="mW0xl6wsFZFQzlrAiL7S-172" value="" style="endArrow=classic;html=1;rounded=0;exitX=1;exitY=0.5;exitDx=0;exitDy=0;entryX=1;entryY=0.5;entryDx=0;entryDy=0;" edge="1" parent="WIyWlLk6GJQsqaUBKTNV-1" target="mW0xl6wsFZFQzlrAiL7S-150">
          <mxGeometry width="50" height="50" relative="1" as="geometry">
            <mxPoint x="2580" y="492.74" as="sourcePoint" />
            <mxPoint x="2520" y="493" as="targetPoint" />
          </mxGeometry>
        </mxCell>
        <mxCell id="mW0xl6wsFZFQzlrAiL7S-173" value="" style="endArrow=classic;html=1;rounded=0;" edge="1" parent="WIyWlLk6GJQsqaUBKTNV-1" target="mW0xl6wsFZFQzlrAiL7S-174">
          <mxGeometry width="50" height="50" relative="1" as="geometry">
            <mxPoint x="2449.23" y="523" as="sourcePoint" />
            <mxPoint x="2450" y="593" as="targetPoint" />
          </mxGeometry>
        </mxCell>
        <mxCell id="mW0xl6wsFZFQzlrAiL7S-174" value="Display incorrect feedback in lblQ3Feeback" style="shape=parallelogram;perimeter=parallelogramPerimeter;whiteSpace=wrap;html=1;fixedSize=1;" vertex="1" parent="WIyWlLk6GJQsqaUBKTNV-1">
          <mxGeometry x="2390" y="603.0000000000001" width="120" height="60" as="geometry" />
        </mxCell>
        <mxCell id="mW0xl6wsFZFQzlrAiL7S-175" value="" style="endArrow=classic;html=1;rounded=0;" edge="1" parent="WIyWlLk6GJQsqaUBKTNV-1" target="mW0xl6wsFZFQzlrAiL7S-176">
          <mxGeometry width="50" height="50" relative="1" as="geometry">
            <mxPoint x="3039.23" y="523" as="sourcePoint" />
            <mxPoint x="3040" y="593" as="targetPoint" />
          </mxGeometry>
        </mxCell>
        <mxCell id="mW0xl6wsFZFQzlrAiL7S-176" value="Display correct&lt;br&gt;feedback in lblQ3Feedback" style="shape=parallelogram;perimeter=parallelogramPerimeter;whiteSpace=wrap;html=1;fixedSize=1;" vertex="1" parent="WIyWlLk6GJQsqaUBKTNV-1">
          <mxGeometry x="2980" y="603.0000000000001" width="120" height="60" as="geometry" />
        </mxCell>
        <mxCell id="mW0xl6wsFZFQzlrAiL7S-177" value="Read in&lt;br&gt;Q3 answer" style="shape=parallelogram;perimeter=parallelogramPerimeter;whiteSpace=wrap;html=1;fixedSize=1;" vertex="1" parent="WIyWlLk6GJQsqaUBKTNV-1">
          <mxGeometry x="2685" y="291" width="120" height="60" as="geometry" />
        </mxCell>
        <mxCell id="mW0xl6wsFZFQzlrAiL7S-178" value="" style="endArrow=classic;html=1;rounded=0;entryX=0.542;entryY=0;entryDx=0;entryDy=0;entryPerimeter=0;" edge="1" parent="WIyWlLk6GJQsqaUBKTNV-1" target="mW0xl6wsFZFQzlrAiL7S-177">
          <mxGeometry width="50" height="50" relative="1" as="geometry">
            <mxPoint x="2750" y="241" as="sourcePoint" />
            <mxPoint x="2890" y="291" as="targetPoint" />
          </mxGeometry>
        </mxCell>
        <mxCell id="mW0xl6wsFZFQzlrAiL7S-180" value="" style="endArrow=classic;html=1;rounded=0;" edge="1" parent="WIyWlLk6GJQsqaUBKTNV-1">
          <mxGeometry width="50" height="50" relative="1" as="geometry">
            <mxPoint x="3834.67" y="353" as="sourcePoint" />
            <mxPoint x="3834.67" y="433" as="targetPoint" />
          </mxGeometry>
        </mxCell>
        <mxCell id="mW0xl6wsFZFQzlrAiL7S-181" value="if (lblQ4Response.equals&lt;br&gt;(STRQ4CORRECTANSLOWER) || &lt;br&gt;lblQ4Response.equals&lt;br&gt;(STRQ4CORRECTANSUPPER))" style="rhombus;whiteSpace=wrap;html=1;" vertex="1" parent="WIyWlLk6GJQsqaUBKTNV-1">
          <mxGeometry x="3670" y="433" width="330" height="120" as="geometry" />
        </mxCell>
        <mxCell id="mW0xl6wsFZFQzlrAiL7S-182" value="True" style="rounded=0;whiteSpace=wrap;html=1;" vertex="1" parent="WIyWlLk6GJQsqaUBKTNV-1">
          <mxGeometry x="4070" y="463.00000000000006" width="120" height="60" as="geometry" />
        </mxCell>
        <mxCell id="mW0xl6wsFZFQzlrAiL7S-183" value="" style="endArrow=classic;html=1;rounded=0;entryX=0.5;entryY=0;entryDx=0;entryDy=0;" edge="1" parent="WIyWlLk6GJQsqaUBKTNV-1" target="mW0xl6wsFZFQzlrAiL7S-185">
          <mxGeometry width="50" height="50" relative="1" as="geometry">
            <mxPoint x="4130" y="660" as="sourcePoint" />
            <mxPoint x="4129.67" y="720" as="targetPoint" />
          </mxGeometry>
        </mxCell>
        <mxCell id="mW0xl6wsFZFQzlrAiL7S-184" value="" style="endArrow=classic;html=1;rounded=0;exitX=1;exitY=0.5;exitDx=0;exitDy=0;entryX=0;entryY=0.5;entryDx=0;entryDy=0;" edge="1" parent="WIyWlLk6GJQsqaUBKTNV-1" source="mW0xl6wsFZFQzlrAiL7S-181">
          <mxGeometry width="50" height="50" relative="1" as="geometry">
            <mxPoint x="4100" y="512.6700000000001" as="sourcePoint" />
            <mxPoint x="4070" y="493" as="targetPoint" />
          </mxGeometry>
        </mxCell>
        <mxCell id="mW0xl6wsFZFQzlrAiL7S-185" value="if (intQ4Status == 0)" style="rhombus;whiteSpace=wrap;html=1;" vertex="1" parent="WIyWlLk6GJQsqaUBKTNV-1">
          <mxGeometry x="4070" y="720" width="120" height="80" as="geometry" />
        </mxCell>
        <mxCell id="mW0xl6wsFZFQzlrAiL7S-186" value="" style="endArrow=classic;html=1;rounded=0;" edge="1" parent="WIyWlLk6GJQsqaUBKTNV-1" target="mW0xl6wsFZFQzlrAiL7S-187">
          <mxGeometry width="50" height="50" relative="1" as="geometry">
            <mxPoint x="4070" y="759.6700000000001" as="sourcePoint" />
            <mxPoint x="3980" y="759.6700000000001" as="targetPoint" />
          </mxGeometry>
        </mxCell>
        <mxCell id="mW0xl6wsFZFQzlrAiL7S-187" value="True" style="rounded=0;whiteSpace=wrap;html=1;" vertex="1" parent="WIyWlLk6GJQsqaUBKTNV-1">
          <mxGeometry x="3880" y="730" width="120" height="60" as="geometry" />
        </mxCell>
        <mxCell id="mW0xl6wsFZFQzlrAiL7S-188" value="" style="endArrow=classic;html=1;rounded=0;entryX=0.5;entryY=0;entryDx=0;entryDy=0;" edge="1" parent="WIyWlLk6GJQsqaUBKTNV-1" target="mW0xl6wsFZFQzlrAiL7S-191">
          <mxGeometry width="50" height="50" relative="1" as="geometry">
            <mxPoint x="3940" y="790" as="sourcePoint" />
            <mxPoint x="3940" y="850" as="targetPoint" />
          </mxGeometry>
        </mxCell>
        <mxCell id="mW0xl6wsFZFQzlrAiL7S-189" value="" style="endArrow=classic;html=1;rounded=0;entryX=0.5;entryY=0;entryDx=0;entryDy=0;" edge="1" parent="WIyWlLk6GJQsqaUBKTNV-1">
          <mxGeometry width="50" height="50" relative="1" as="geometry">
            <mxPoint x="4129.67" y="800" as="sourcePoint" />
            <mxPoint x="4129.67" y="860" as="targetPoint" />
          </mxGeometry>
        </mxCell>
        <mxCell id="mW0xl6wsFZFQzlrAiL7S-190" value="False" style="rounded=0;whiteSpace=wrap;html=1;" vertex="1" parent="WIyWlLk6GJQsqaUBKTNV-1">
          <mxGeometry x="4070" y="860" width="120" height="60" as="geometry" />
        </mxCell>
        <mxCell id="mW0xl6wsFZFQzlrAiL7S-191" value="intIncorrect--;" style="shape=label;whiteSpace=wrap;html=1;fixedSize=1;rounded=0;" vertex="1" parent="WIyWlLk6GJQsqaUBKTNV-1">
          <mxGeometry x="3880" y="1000" width="120" height="60" as="geometry" />
        </mxCell>
        <mxCell id="mW0xl6wsFZFQzlrAiL7S-192" value="" style="endArrow=classic;html=1;rounded=0;" edge="1" parent="WIyWlLk6GJQsqaUBKTNV-1">
          <mxGeometry width="50" height="50" relative="1" as="geometry">
            <mxPoint x="4129.67" y="920" as="sourcePoint" />
            <mxPoint x="4129.67" y="990" as="targetPoint" />
          </mxGeometry>
        </mxCell>
        <mxCell id="mW0xl6wsFZFQzlrAiL7S-193" value="" style="endArrow=classic;html=1;rounded=0;exitX=1;exitY=0.5;exitDx=0;exitDy=0;entryX=0;entryY=0.5;entryDx=0;entryDy=0;" edge="1" parent="WIyWlLk6GJQsqaUBKTNV-1" source="mW0xl6wsFZFQzlrAiL7S-191" target="mW0xl6wsFZFQzlrAiL7S-194">
          <mxGeometry width="50" height="50" relative="1" as="geometry">
            <mxPoint x="4100" y="970" as="sourcePoint" />
            <mxPoint x="4090" y="1020" as="targetPoint" />
          </mxGeometry>
        </mxCell>
        <mxCell id="mW0xl6wsFZFQzlrAiL7S-194" value="if (intQ4Status != 1)" style="rhombus;whiteSpace=wrap;html=1;" vertex="1" parent="WIyWlLk6GJQsqaUBKTNV-1">
          <mxGeometry x="4070" y="990" width="120" height="80" as="geometry" />
        </mxCell>
        <mxCell id="mW0xl6wsFZFQzlrAiL7S-195" value="" style="endArrow=classic;html=1;rounded=0;entryX=0;entryY=0.5;entryDx=0;entryDy=0;exitX=1;exitY=0.5;exitDx=0;exitDy=0;" edge="1" parent="WIyWlLk6GJQsqaUBKTNV-1" source="mW0xl6wsFZFQzlrAiL7S-194">
          <mxGeometry width="50" height="50" relative="1" as="geometry">
            <mxPoint x="4200" y="1010" as="sourcePoint" />
            <mxPoint x="4240" y="1030" as="targetPoint" />
          </mxGeometry>
        </mxCell>
        <mxCell id="mW0xl6wsFZFQzlrAiL7S-196" value="True" style="rounded=0;whiteSpace=wrap;html=1;" vertex="1" parent="WIyWlLk6GJQsqaUBKTNV-1">
          <mxGeometry x="4240" y="1000" width="120" height="60" as="geometry" />
        </mxCell>
        <mxCell id="mW0xl6wsFZFQzlrAiL7S-197" value="" style="endArrow=classic;html=1;rounded=0;entryX=0.5;entryY=0;entryDx=0;entryDy=0;" edge="1" parent="WIyWlLk6GJQsqaUBKTNV-1">
          <mxGeometry width="50" height="50" relative="1" as="geometry">
            <mxPoint x="4300" y="1060" as="sourcePoint" />
            <mxPoint x="4300" y="1260" as="targetPoint" />
          </mxGeometry>
        </mxCell>
        <mxCell id="mW0xl6wsFZFQzlrAiL7S-198" value="intCorrect++;" style="shape=label;whiteSpace=wrap;html=1;fixedSize=1;rounded=0;" vertex="1" parent="WIyWlLk6GJQsqaUBKTNV-1">
          <mxGeometry x="4240" y="1256" width="120" height="60" as="geometry" />
        </mxCell>
        <mxCell id="mW0xl6wsFZFQzlrAiL7S-199" value="" style="endArrow=classic;html=1;rounded=0;entryX=1;entryY=0.5;entryDx=0;entryDy=0;" edge="1" parent="WIyWlLk6GJQsqaUBKTNV-1" target="mW0xl6wsFZFQzlrAiL7S-203">
          <mxGeometry width="50" height="50" relative="1" as="geometry">
            <mxPoint x="4250" y="1290" as="sourcePoint" />
            <mxPoint x="4170" y="1289.67" as="targetPoint" />
          </mxGeometry>
        </mxCell>
        <mxCell id="mW0xl6wsFZFQzlrAiL7S-200" value="" style="endArrow=classic;html=1;rounded=0;entryX=0.5;entryY=0;entryDx=0;entryDy=0;" edge="1" parent="WIyWlLk6GJQsqaUBKTNV-1">
          <mxGeometry width="50" height="50" relative="1" as="geometry">
            <mxPoint x="4129.67" y="1070" as="sourcePoint" />
            <mxPoint x="4129.67" y="1130" as="targetPoint" />
          </mxGeometry>
        </mxCell>
        <mxCell id="mW0xl6wsFZFQzlrAiL7S-201" value="False" style="rounded=0;whiteSpace=wrap;html=1;" vertex="1" parent="WIyWlLk6GJQsqaUBKTNV-1">
          <mxGeometry x="4070" y="1130" width="120" height="60" as="geometry" />
        </mxCell>
        <mxCell id="mW0xl6wsFZFQzlrAiL7S-202" value="" style="endArrow=classic;html=1;rounded=0;" edge="1" parent="WIyWlLk6GJQsqaUBKTNV-1">
          <mxGeometry width="50" height="50" relative="1" as="geometry">
            <mxPoint x="4129.67" y="1190" as="sourcePoint" />
            <mxPoint x="4129.67" y="1260" as="targetPoint" />
          </mxGeometry>
        </mxCell>
        <mxCell id="mW0xl6wsFZFQzlrAiL7S-203" value="intQ4Status=1;" style="shape=label;whiteSpace=wrap;html=1;fixedSize=1;rounded=0;" vertex="1" parent="WIyWlLk6GJQsqaUBKTNV-1">
          <mxGeometry x="4070" y="1260" width="120" height="60" as="geometry" />
        </mxCell>
        <mxCell id="mW0xl6wsFZFQzlrAiL7S-204" value="" style="endArrow=classic;html=1;rounded=0;" edge="1" parent="WIyWlLk6GJQsqaUBKTNV-1">
          <mxGeometry width="50" height="50" relative="1" as="geometry">
            <mxPoint x="4129.66" y="1320" as="sourcePoint" />
            <mxPoint x="4129.66" y="1440" as="targetPoint" />
          </mxGeometry>
        </mxCell>
        <mxCell id="mW0xl6wsFZFQzlrAiL7S-205" value="False" style="rounded=0;whiteSpace=wrap;html=1;" vertex="1" parent="WIyWlLk6GJQsqaUBKTNV-1">
          <mxGeometry x="3480" y="463.00000000000006" width="120" height="60" as="geometry" />
        </mxCell>
        <mxCell id="mW0xl6wsFZFQzlrAiL7S-206" value="" style="endArrow=classic;html=1;rounded=0;entryX=0.5;entryY=0;entryDx=0;entryDy=0;" edge="1" parent="WIyWlLk6GJQsqaUBKTNV-1" target="mW0xl6wsFZFQzlrAiL7S-207">
          <mxGeometry width="50" height="50" relative="1" as="geometry">
            <mxPoint x="3540" y="660" as="sourcePoint" />
            <mxPoint x="3539.67" y="720" as="targetPoint" />
          </mxGeometry>
        </mxCell>
        <mxCell id="mW0xl6wsFZFQzlrAiL7S-207" value="if (intQ4Status == 1)" style="rhombus;whiteSpace=wrap;html=1;" vertex="1" parent="WIyWlLk6GJQsqaUBKTNV-1">
          <mxGeometry x="3480" y="720" width="120" height="80" as="geometry" />
        </mxCell>
        <mxCell id="mW0xl6wsFZFQzlrAiL7S-208" value="" style="endArrow=classic;html=1;rounded=0;" edge="1" parent="WIyWlLk6GJQsqaUBKTNV-1" target="mW0xl6wsFZFQzlrAiL7S-209">
          <mxGeometry width="50" height="50" relative="1" as="geometry">
            <mxPoint x="3480" y="759.6700000000001" as="sourcePoint" />
            <mxPoint x="3390" y="759.6700000000001" as="targetPoint" />
          </mxGeometry>
        </mxCell>
        <mxCell id="mW0xl6wsFZFQzlrAiL7S-209" value="True" style="rounded=0;whiteSpace=wrap;html=1;" vertex="1" parent="WIyWlLk6GJQsqaUBKTNV-1">
          <mxGeometry x="3290" y="730" width="120" height="60" as="geometry" />
        </mxCell>
        <mxCell id="mW0xl6wsFZFQzlrAiL7S-210" value="" style="endArrow=classic;html=1;rounded=0;entryX=0.5;entryY=0;entryDx=0;entryDy=0;" edge="1" parent="WIyWlLk6GJQsqaUBKTNV-1" target="mW0xl6wsFZFQzlrAiL7S-213">
          <mxGeometry width="50" height="50" relative="1" as="geometry">
            <mxPoint x="3350" y="790" as="sourcePoint" />
            <mxPoint x="3350" y="850" as="targetPoint" />
          </mxGeometry>
        </mxCell>
        <mxCell id="mW0xl6wsFZFQzlrAiL7S-211" value="" style="endArrow=classic;html=1;rounded=0;entryX=0.5;entryY=0;entryDx=0;entryDy=0;" edge="1" parent="WIyWlLk6GJQsqaUBKTNV-1">
          <mxGeometry width="50" height="50" relative="1" as="geometry">
            <mxPoint x="3539.67" y="800" as="sourcePoint" />
            <mxPoint x="3539.67" y="860" as="targetPoint" />
          </mxGeometry>
        </mxCell>
        <mxCell id="mW0xl6wsFZFQzlrAiL7S-212" value="False" style="rounded=0;whiteSpace=wrap;html=1;" vertex="1" parent="WIyWlLk6GJQsqaUBKTNV-1">
          <mxGeometry x="3480" y="860" width="120" height="60" as="geometry" />
        </mxCell>
        <mxCell id="mW0xl6wsFZFQzlrAiL7S-213" value="intCorrect--;" style="shape=label;whiteSpace=wrap;html=1;fixedSize=1;rounded=0;" vertex="1" parent="WIyWlLk6GJQsqaUBKTNV-1">
          <mxGeometry x="3290" y="1000" width="120" height="60" as="geometry" />
        </mxCell>
        <mxCell id="mW0xl6wsFZFQzlrAiL7S-214" value="" style="endArrow=classic;html=1;rounded=0;" edge="1" parent="WIyWlLk6GJQsqaUBKTNV-1">
          <mxGeometry width="50" height="50" relative="1" as="geometry">
            <mxPoint x="3539.67" y="920" as="sourcePoint" />
            <mxPoint x="3539.67" y="990" as="targetPoint" />
          </mxGeometry>
        </mxCell>
        <mxCell id="mW0xl6wsFZFQzlrAiL7S-215" value="" style="endArrow=classic;html=1;rounded=0;exitX=1;exitY=0.5;exitDx=0;exitDy=0;entryX=0;entryY=0.5;entryDx=0;entryDy=0;" edge="1" parent="WIyWlLk6GJQsqaUBKTNV-1" source="mW0xl6wsFZFQzlrAiL7S-213" target="mW0xl6wsFZFQzlrAiL7S-216">
          <mxGeometry width="50" height="50" relative="1" as="geometry">
            <mxPoint x="3510" y="970" as="sourcePoint" />
            <mxPoint x="3500" y="1020" as="targetPoint" />
          </mxGeometry>
        </mxCell>
        <mxCell id="mW0xl6wsFZFQzlrAiL7S-216" value="if (intQ4Status != 0)" style="rhombus;whiteSpace=wrap;html=1;" vertex="1" parent="WIyWlLk6GJQsqaUBKTNV-1">
          <mxGeometry x="3480" y="990" width="120" height="80" as="geometry" />
        </mxCell>
        <mxCell id="mW0xl6wsFZFQzlrAiL7S-217" value="" style="endArrow=classic;html=1;rounded=0;entryX=0;entryY=0.5;entryDx=0;entryDy=0;exitX=1;exitY=0.5;exitDx=0;exitDy=0;" edge="1" parent="WIyWlLk6GJQsqaUBKTNV-1" source="mW0xl6wsFZFQzlrAiL7S-216" target="mW0xl6wsFZFQzlrAiL7S-218">
          <mxGeometry width="50" height="50" relative="1" as="geometry">
            <mxPoint x="3610" y="1010" as="sourcePoint" />
            <mxPoint x="3590" y="1029.8476923076923" as="targetPoint" />
          </mxGeometry>
        </mxCell>
        <mxCell id="mW0xl6wsFZFQzlrAiL7S-218" value="True" style="rounded=0;whiteSpace=wrap;html=1;" vertex="1" parent="WIyWlLk6GJQsqaUBKTNV-1">
          <mxGeometry x="3650" y="1000" width="120" height="60" as="geometry" />
        </mxCell>
        <mxCell id="mW0xl6wsFZFQzlrAiL7S-219" value="" style="endArrow=classic;html=1;rounded=0;entryX=0.5;entryY=0;entryDx=0;entryDy=0;" edge="1" parent="WIyWlLk6GJQsqaUBKTNV-1" target="mW0xl6wsFZFQzlrAiL7S-220">
          <mxGeometry width="50" height="50" relative="1" as="geometry">
            <mxPoint x="3710" y="1060" as="sourcePoint" />
            <mxPoint x="3710" y="1120" as="targetPoint" />
          </mxGeometry>
        </mxCell>
        <mxCell id="mW0xl6wsFZFQzlrAiL7S-220" value="intIncorrect++;" style="shape=label;whiteSpace=wrap;html=1;fixedSize=1;rounded=0;" vertex="1" parent="WIyWlLk6GJQsqaUBKTNV-1">
          <mxGeometry x="3650" y="1260" width="120" height="60" as="geometry" />
        </mxCell>
        <mxCell id="mW0xl6wsFZFQzlrAiL7S-221" value="" style="endArrow=classic;html=1;rounded=0;entryX=1;entryY=0.5;entryDx=0;entryDy=0;" edge="1" parent="WIyWlLk6GJQsqaUBKTNV-1" source="mW0xl6wsFZFQzlrAiL7S-220" target="mW0xl6wsFZFQzlrAiL7S-225">
          <mxGeometry width="50" height="50" relative="1" as="geometry">
            <mxPoint x="3660" y="1289.67" as="sourcePoint" />
            <mxPoint x="3580" y="1289.67" as="targetPoint" />
          </mxGeometry>
        </mxCell>
        <mxCell id="mW0xl6wsFZFQzlrAiL7S-222" value="" style="endArrow=classic;html=1;rounded=0;entryX=0.5;entryY=0;entryDx=0;entryDy=0;" edge="1" parent="WIyWlLk6GJQsqaUBKTNV-1">
          <mxGeometry width="50" height="50" relative="1" as="geometry">
            <mxPoint x="3539.67" y="1070" as="sourcePoint" />
            <mxPoint x="3539.67" y="1130" as="targetPoint" />
          </mxGeometry>
        </mxCell>
        <mxCell id="mW0xl6wsFZFQzlrAiL7S-223" value="False" style="rounded=0;whiteSpace=wrap;html=1;" vertex="1" parent="WIyWlLk6GJQsqaUBKTNV-1">
          <mxGeometry x="3480" y="1130" width="120" height="60" as="geometry" />
        </mxCell>
        <mxCell id="mW0xl6wsFZFQzlrAiL7S-224" value="" style="endArrow=classic;html=1;rounded=0;" edge="1" parent="WIyWlLk6GJQsqaUBKTNV-1">
          <mxGeometry width="50" height="50" relative="1" as="geometry">
            <mxPoint x="3539.67" y="1190" as="sourcePoint" />
            <mxPoint x="3539.67" y="1260" as="targetPoint" />
          </mxGeometry>
        </mxCell>
        <mxCell id="mW0xl6wsFZFQzlrAiL7S-225" value="intQ4Status=0;" style="shape=label;whiteSpace=wrap;html=1;fixedSize=1;rounded=0;" vertex="1" parent="WIyWlLk6GJQsqaUBKTNV-1">
          <mxGeometry x="3480" y="1260" width="120" height="60" as="geometry" />
        </mxCell>
        <mxCell id="mW0xl6wsFZFQzlrAiL7S-226" value="" style="endArrow=classic;html=1;rounded=0;" edge="1" parent="WIyWlLk6GJQsqaUBKTNV-1">
          <mxGeometry width="50" height="50" relative="1" as="geometry">
            <mxPoint x="3539.66" y="1320" as="sourcePoint" />
            <mxPoint x="3539.66" y="1440" as="targetPoint" />
          </mxGeometry>
        </mxCell>
        <mxCell id="mW0xl6wsFZFQzlrAiL7S-227" value="" style="endArrow=classic;html=1;rounded=0;exitX=1;exitY=0.5;exitDx=0;exitDy=0;entryX=1;entryY=0.5;entryDx=0;entryDy=0;" edge="1" parent="WIyWlLk6GJQsqaUBKTNV-1" target="mW0xl6wsFZFQzlrAiL7S-205">
          <mxGeometry width="50" height="50" relative="1" as="geometry">
            <mxPoint x="3670" y="492.74" as="sourcePoint" />
            <mxPoint x="3610" y="493" as="targetPoint" />
          </mxGeometry>
        </mxCell>
        <mxCell id="mW0xl6wsFZFQzlrAiL7S-228" value="" style="endArrow=classic;html=1;rounded=0;" edge="1" parent="WIyWlLk6GJQsqaUBKTNV-1" target="mW0xl6wsFZFQzlrAiL7S-229">
          <mxGeometry width="50" height="50" relative="1" as="geometry">
            <mxPoint x="3539.23" y="523" as="sourcePoint" />
            <mxPoint x="3540" y="593" as="targetPoint" />
          </mxGeometry>
        </mxCell>
        <mxCell id="mW0xl6wsFZFQzlrAiL7S-229" value="Display incorrect feedback in lblQ4Feeback" style="shape=parallelogram;perimeter=parallelogramPerimeter;whiteSpace=wrap;html=1;fixedSize=1;" vertex="1" parent="WIyWlLk6GJQsqaUBKTNV-1">
          <mxGeometry x="3480" y="603.0000000000001" width="120" height="60" as="geometry" />
        </mxCell>
        <mxCell id="mW0xl6wsFZFQzlrAiL7S-230" value="" style="endArrow=classic;html=1;rounded=0;" edge="1" parent="WIyWlLk6GJQsqaUBKTNV-1" target="mW0xl6wsFZFQzlrAiL7S-231">
          <mxGeometry width="50" height="50" relative="1" as="geometry">
            <mxPoint x="4129.23" y="523" as="sourcePoint" />
            <mxPoint x="4130" y="593" as="targetPoint" />
          </mxGeometry>
        </mxCell>
        <mxCell id="mW0xl6wsFZFQzlrAiL7S-231" value="Display correct&lt;br&gt;feedback in lblQ4Feedback" style="shape=parallelogram;perimeter=parallelogramPerimeter;whiteSpace=wrap;html=1;fixedSize=1;" vertex="1" parent="WIyWlLk6GJQsqaUBKTNV-1">
          <mxGeometry x="4070" y="603.0000000000001" width="120" height="60" as="geometry" />
        </mxCell>
        <mxCell id="mW0xl6wsFZFQzlrAiL7S-232" value="Read in&lt;br&gt;Q4 answer" style="shape=parallelogram;perimeter=parallelogramPerimeter;whiteSpace=wrap;html=1;fixedSize=1;" vertex="1" parent="WIyWlLk6GJQsqaUBKTNV-1">
          <mxGeometry x="3775" y="291" width="120" height="60" as="geometry" />
        </mxCell>
        <mxCell id="mW0xl6wsFZFQzlrAiL7S-233" value="" style="endArrow=classic;html=1;rounded=0;entryX=0.542;entryY=0;entryDx=0;entryDy=0;entryPerimeter=0;" edge="1" parent="WIyWlLk6GJQsqaUBKTNV-1" target="mW0xl6wsFZFQzlrAiL7S-232">
          <mxGeometry width="50" height="50" relative="1" as="geometry">
            <mxPoint x="3840" y="241" as="sourcePoint" />
            <mxPoint x="3980" y="291" as="targetPoint" />
          </mxGeometry>
        </mxCell>
        <mxCell id="mW0xl6wsFZFQzlrAiL7S-234" value="" style="endArrow=classic;html=1;rounded=0;" edge="1" parent="WIyWlLk6GJQsqaUBKTNV-1">
          <mxGeometry width="50" height="50" relative="1" as="geometry">
            <mxPoint x="4924.67" y="353" as="sourcePoint" />
            <mxPoint x="4924.67" y="433" as="targetPoint" />
          </mxGeometry>
        </mxCell>
        <mxCell id="mW0xl6wsFZFQzlrAiL7S-235" value="if (lblQ5Response.equals&lt;br&gt;(STRQ5CORRECTANSLOWER) || &lt;br&gt;lblQ5Response.equals&lt;br&gt;(STRQ5CORRECTANSUPPER))" style="rhombus;whiteSpace=wrap;html=1;" vertex="1" parent="WIyWlLk6GJQsqaUBKTNV-1">
          <mxGeometry x="4760" y="433" width="330" height="120" as="geometry" />
        </mxCell>
        <mxCell id="mW0xl6wsFZFQzlrAiL7S-236" value="True" style="rounded=0;whiteSpace=wrap;html=1;" vertex="1" parent="WIyWlLk6GJQsqaUBKTNV-1">
          <mxGeometry x="5160" y="463.00000000000006" width="120" height="60" as="geometry" />
        </mxCell>
        <mxCell id="mW0xl6wsFZFQzlrAiL7S-237" value="" style="endArrow=classic;html=1;rounded=0;entryX=0.5;entryY=0;entryDx=0;entryDy=0;" edge="1" parent="WIyWlLk6GJQsqaUBKTNV-1" target="mW0xl6wsFZFQzlrAiL7S-239">
          <mxGeometry width="50" height="50" relative="1" as="geometry">
            <mxPoint x="5220" y="660" as="sourcePoint" />
            <mxPoint x="5219.67" y="720" as="targetPoint" />
          </mxGeometry>
        </mxCell>
        <mxCell id="mW0xl6wsFZFQzlrAiL7S-238" value="" style="endArrow=classic;html=1;rounded=0;exitX=1;exitY=0.5;exitDx=0;exitDy=0;entryX=0;entryY=0.5;entryDx=0;entryDy=0;" edge="1" parent="WIyWlLk6GJQsqaUBKTNV-1" source="mW0xl6wsFZFQzlrAiL7S-235">
          <mxGeometry width="50" height="50" relative="1" as="geometry">
            <mxPoint x="5190" y="512.6700000000001" as="sourcePoint" />
            <mxPoint x="5160" y="493" as="targetPoint" />
          </mxGeometry>
        </mxCell>
        <mxCell id="mW0xl6wsFZFQzlrAiL7S-239" value="if (intQ5Status == 0)" style="rhombus;whiteSpace=wrap;html=1;" vertex="1" parent="WIyWlLk6GJQsqaUBKTNV-1">
          <mxGeometry x="5160" y="720" width="120" height="80" as="geometry" />
        </mxCell>
        <mxCell id="mW0xl6wsFZFQzlrAiL7S-240" value="" style="endArrow=classic;html=1;rounded=0;" edge="1" parent="WIyWlLk6GJQsqaUBKTNV-1" target="mW0xl6wsFZFQzlrAiL7S-241">
          <mxGeometry width="50" height="50" relative="1" as="geometry">
            <mxPoint x="5160" y="759.6700000000001" as="sourcePoint" />
            <mxPoint x="5070" y="759.6700000000001" as="targetPoint" />
          </mxGeometry>
        </mxCell>
        <mxCell id="mW0xl6wsFZFQzlrAiL7S-241" value="True" style="rounded=0;whiteSpace=wrap;html=1;" vertex="1" parent="WIyWlLk6GJQsqaUBKTNV-1">
          <mxGeometry x="4970" y="730" width="120" height="60" as="geometry" />
        </mxCell>
        <mxCell id="mW0xl6wsFZFQzlrAiL7S-242" value="" style="endArrow=classic;html=1;rounded=0;entryX=0.5;entryY=0;entryDx=0;entryDy=0;" edge="1" parent="WIyWlLk6GJQsqaUBKTNV-1" target="mW0xl6wsFZFQzlrAiL7S-245">
          <mxGeometry width="50" height="50" relative="1" as="geometry">
            <mxPoint x="5030" y="790" as="sourcePoint" />
            <mxPoint x="5030" y="850" as="targetPoint" />
          </mxGeometry>
        </mxCell>
        <mxCell id="mW0xl6wsFZFQzlrAiL7S-243" value="" style="endArrow=classic;html=1;rounded=0;entryX=0.5;entryY=0;entryDx=0;entryDy=0;" edge="1" parent="WIyWlLk6GJQsqaUBKTNV-1">
          <mxGeometry width="50" height="50" relative="1" as="geometry">
            <mxPoint x="5219.67" y="800" as="sourcePoint" />
            <mxPoint x="5219.67" y="860" as="targetPoint" />
          </mxGeometry>
        </mxCell>
        <mxCell id="mW0xl6wsFZFQzlrAiL7S-244" value="False" style="rounded=0;whiteSpace=wrap;html=1;" vertex="1" parent="WIyWlLk6GJQsqaUBKTNV-1">
          <mxGeometry x="5160" y="860" width="120" height="60" as="geometry" />
        </mxCell>
        <mxCell id="mW0xl6wsFZFQzlrAiL7S-245" value="intIncorrect--;" style="shape=label;whiteSpace=wrap;html=1;fixedSize=1;rounded=0;" vertex="1" parent="WIyWlLk6GJQsqaUBKTNV-1">
          <mxGeometry x="4970" y="1000" width="120" height="60" as="geometry" />
        </mxCell>
        <mxCell id="mW0xl6wsFZFQzlrAiL7S-246" value="" style="endArrow=classic;html=1;rounded=0;" edge="1" parent="WIyWlLk6GJQsqaUBKTNV-1">
          <mxGeometry width="50" height="50" relative="1" as="geometry">
            <mxPoint x="5219.67" y="920" as="sourcePoint" />
            <mxPoint x="5219.67" y="990" as="targetPoint" />
          </mxGeometry>
        </mxCell>
        <mxCell id="mW0xl6wsFZFQzlrAiL7S-247" value="" style="endArrow=classic;html=1;rounded=0;exitX=1;exitY=0.5;exitDx=0;exitDy=0;entryX=0;entryY=0.5;entryDx=0;entryDy=0;" edge="1" parent="WIyWlLk6GJQsqaUBKTNV-1" source="mW0xl6wsFZFQzlrAiL7S-245" target="mW0xl6wsFZFQzlrAiL7S-248">
          <mxGeometry width="50" height="50" relative="1" as="geometry">
            <mxPoint x="5190" y="970" as="sourcePoint" />
            <mxPoint x="5180" y="1020" as="targetPoint" />
          </mxGeometry>
        </mxCell>
        <mxCell id="mW0xl6wsFZFQzlrAiL7S-248" value="if (intQ5Status != 1)" style="rhombus;whiteSpace=wrap;html=1;" vertex="1" parent="WIyWlLk6GJQsqaUBKTNV-1">
          <mxGeometry x="5160" y="990" width="120" height="80" as="geometry" />
        </mxCell>
        <mxCell id="mW0xl6wsFZFQzlrAiL7S-249" value="" style="endArrow=classic;html=1;rounded=0;entryX=0;entryY=0.5;entryDx=0;entryDy=0;exitX=1;exitY=0.5;exitDx=0;exitDy=0;" edge="1" parent="WIyWlLk6GJQsqaUBKTNV-1" source="mW0xl6wsFZFQzlrAiL7S-248">
          <mxGeometry width="50" height="50" relative="1" as="geometry">
            <mxPoint x="5290" y="1010" as="sourcePoint" />
            <mxPoint x="5330" y="1030" as="targetPoint" />
          </mxGeometry>
        </mxCell>
        <mxCell id="mW0xl6wsFZFQzlrAiL7S-250" value="True" style="rounded=0;whiteSpace=wrap;html=1;" vertex="1" parent="WIyWlLk6GJQsqaUBKTNV-1">
          <mxGeometry x="5330" y="1000" width="120" height="60" as="geometry" />
        </mxCell>
        <mxCell id="mW0xl6wsFZFQzlrAiL7S-251" value="" style="endArrow=classic;html=1;rounded=0;entryX=0.5;entryY=0;entryDx=0;entryDy=0;" edge="1" parent="WIyWlLk6GJQsqaUBKTNV-1">
          <mxGeometry width="50" height="50" relative="1" as="geometry">
            <mxPoint x="5390" y="1060" as="sourcePoint" />
            <mxPoint x="5390" y="1260" as="targetPoint" />
          </mxGeometry>
        </mxCell>
        <mxCell id="mW0xl6wsFZFQzlrAiL7S-252" value="intCorrect++;" style="shape=label;whiteSpace=wrap;html=1;fixedSize=1;rounded=0;" vertex="1" parent="WIyWlLk6GJQsqaUBKTNV-1">
          <mxGeometry x="5330" y="1256" width="120" height="60" as="geometry" />
        </mxCell>
        <mxCell id="mW0xl6wsFZFQzlrAiL7S-253" value="" style="endArrow=classic;html=1;rounded=0;entryX=1;entryY=0.5;entryDx=0;entryDy=0;" edge="1" parent="WIyWlLk6GJQsqaUBKTNV-1" target="mW0xl6wsFZFQzlrAiL7S-257">
          <mxGeometry width="50" height="50" relative="1" as="geometry">
            <mxPoint x="5340" y="1290" as="sourcePoint" />
            <mxPoint x="5260" y="1289.67" as="targetPoint" />
          </mxGeometry>
        </mxCell>
        <mxCell id="mW0xl6wsFZFQzlrAiL7S-254" value="" style="endArrow=classic;html=1;rounded=0;entryX=0.5;entryY=0;entryDx=0;entryDy=0;" edge="1" parent="WIyWlLk6GJQsqaUBKTNV-1">
          <mxGeometry width="50" height="50" relative="1" as="geometry">
            <mxPoint x="5219.67" y="1070" as="sourcePoint" />
            <mxPoint x="5219.67" y="1130" as="targetPoint" />
          </mxGeometry>
        </mxCell>
        <mxCell id="mW0xl6wsFZFQzlrAiL7S-255" value="False" style="rounded=0;whiteSpace=wrap;html=1;" vertex="1" parent="WIyWlLk6GJQsqaUBKTNV-1">
          <mxGeometry x="5160" y="1130" width="120" height="60" as="geometry" />
        </mxCell>
        <mxCell id="mW0xl6wsFZFQzlrAiL7S-256" value="" style="endArrow=classic;html=1;rounded=0;" edge="1" parent="WIyWlLk6GJQsqaUBKTNV-1">
          <mxGeometry width="50" height="50" relative="1" as="geometry">
            <mxPoint x="5219.67" y="1190" as="sourcePoint" />
            <mxPoint x="5219.67" y="1260" as="targetPoint" />
          </mxGeometry>
        </mxCell>
        <mxCell id="mW0xl6wsFZFQzlrAiL7S-257" value="intQ5Status=1;" style="shape=label;whiteSpace=wrap;html=1;fixedSize=1;rounded=0;" vertex="1" parent="WIyWlLk6GJQsqaUBKTNV-1">
          <mxGeometry x="5160" y="1260" width="120" height="60" as="geometry" />
        </mxCell>
        <mxCell id="mW0xl6wsFZFQzlrAiL7S-258" value="" style="endArrow=classic;html=1;rounded=0;" edge="1" parent="WIyWlLk6GJQsqaUBKTNV-1">
          <mxGeometry width="50" height="50" relative="1" as="geometry">
            <mxPoint x="5219.66" y="1320" as="sourcePoint" />
            <mxPoint x="5219.66" y="1440" as="targetPoint" />
          </mxGeometry>
        </mxCell>
        <mxCell id="mW0xl6wsFZFQzlrAiL7S-259" value="False" style="rounded=0;whiteSpace=wrap;html=1;" vertex="1" parent="WIyWlLk6GJQsqaUBKTNV-1">
          <mxGeometry x="4570" y="463.00000000000006" width="120" height="60" as="geometry" />
        </mxCell>
        <mxCell id="mW0xl6wsFZFQzlrAiL7S-260" value="" style="endArrow=classic;html=1;rounded=0;entryX=0.5;entryY=0;entryDx=0;entryDy=0;" edge="1" parent="WIyWlLk6GJQsqaUBKTNV-1" target="mW0xl6wsFZFQzlrAiL7S-261">
          <mxGeometry width="50" height="50" relative="1" as="geometry">
            <mxPoint x="4630" y="660" as="sourcePoint" />
            <mxPoint x="4629.67" y="720" as="targetPoint" />
          </mxGeometry>
        </mxCell>
        <mxCell id="mW0xl6wsFZFQzlrAiL7S-261" value="if (intQ5Status == 1)" style="rhombus;whiteSpace=wrap;html=1;" vertex="1" parent="WIyWlLk6GJQsqaUBKTNV-1">
          <mxGeometry x="4570" y="720" width="120" height="80" as="geometry" />
        </mxCell>
        <mxCell id="mW0xl6wsFZFQzlrAiL7S-262" value="" style="endArrow=classic;html=1;rounded=0;" edge="1" parent="WIyWlLk6GJQsqaUBKTNV-1" target="mW0xl6wsFZFQzlrAiL7S-263">
          <mxGeometry width="50" height="50" relative="1" as="geometry">
            <mxPoint x="4570" y="759.6700000000001" as="sourcePoint" />
            <mxPoint x="4480" y="759.6700000000001" as="targetPoint" />
          </mxGeometry>
        </mxCell>
        <mxCell id="mW0xl6wsFZFQzlrAiL7S-263" value="True" style="rounded=0;whiteSpace=wrap;html=1;" vertex="1" parent="WIyWlLk6GJQsqaUBKTNV-1">
          <mxGeometry x="4380" y="730" width="120" height="60" as="geometry" />
        </mxCell>
        <mxCell id="mW0xl6wsFZFQzlrAiL7S-264" value="" style="endArrow=classic;html=1;rounded=0;entryX=0.5;entryY=0;entryDx=0;entryDy=0;" edge="1" parent="WIyWlLk6GJQsqaUBKTNV-1" target="mW0xl6wsFZFQzlrAiL7S-267">
          <mxGeometry width="50" height="50" relative="1" as="geometry">
            <mxPoint x="4440" y="790" as="sourcePoint" />
            <mxPoint x="4440" y="850" as="targetPoint" />
          </mxGeometry>
        </mxCell>
        <mxCell id="mW0xl6wsFZFQzlrAiL7S-265" value="" style="endArrow=classic;html=1;rounded=0;entryX=0.5;entryY=0;entryDx=0;entryDy=0;" edge="1" parent="WIyWlLk6GJQsqaUBKTNV-1">
          <mxGeometry width="50" height="50" relative="1" as="geometry">
            <mxPoint x="4629.67" y="800" as="sourcePoint" />
            <mxPoint x="4629.67" y="860" as="targetPoint" />
          </mxGeometry>
        </mxCell>
        <mxCell id="mW0xl6wsFZFQzlrAiL7S-266" value="False" style="rounded=0;whiteSpace=wrap;html=1;" vertex="1" parent="WIyWlLk6GJQsqaUBKTNV-1">
          <mxGeometry x="4570" y="860" width="120" height="60" as="geometry" />
        </mxCell>
        <mxCell id="mW0xl6wsFZFQzlrAiL7S-267" value="intCorrect--;" style="shape=label;whiteSpace=wrap;html=1;fixedSize=1;rounded=0;" vertex="1" parent="WIyWlLk6GJQsqaUBKTNV-1">
          <mxGeometry x="4380" y="1000" width="120" height="60" as="geometry" />
        </mxCell>
        <mxCell id="mW0xl6wsFZFQzlrAiL7S-268" value="" style="endArrow=classic;html=1;rounded=0;" edge="1" parent="WIyWlLk6GJQsqaUBKTNV-1">
          <mxGeometry width="50" height="50" relative="1" as="geometry">
            <mxPoint x="4629.67" y="920" as="sourcePoint" />
            <mxPoint x="4629.67" y="990" as="targetPoint" />
          </mxGeometry>
        </mxCell>
        <mxCell id="mW0xl6wsFZFQzlrAiL7S-269" value="" style="endArrow=classic;html=1;rounded=0;exitX=1;exitY=0.5;exitDx=0;exitDy=0;entryX=0;entryY=0.5;entryDx=0;entryDy=0;" edge="1" parent="WIyWlLk6GJQsqaUBKTNV-1" source="mW0xl6wsFZFQzlrAiL7S-267" target="mW0xl6wsFZFQzlrAiL7S-270">
          <mxGeometry width="50" height="50" relative="1" as="geometry">
            <mxPoint x="4600" y="970" as="sourcePoint" />
            <mxPoint x="4590" y="1020" as="targetPoint" />
          </mxGeometry>
        </mxCell>
        <mxCell id="mW0xl6wsFZFQzlrAiL7S-270" value="if (intQ5Status != 0)" style="rhombus;whiteSpace=wrap;html=1;" vertex="1" parent="WIyWlLk6GJQsqaUBKTNV-1">
          <mxGeometry x="4570" y="990" width="120" height="80" as="geometry" />
        </mxCell>
        <mxCell id="mW0xl6wsFZFQzlrAiL7S-271" value="" style="endArrow=classic;html=1;rounded=0;entryX=0;entryY=0.5;entryDx=0;entryDy=0;exitX=1;exitY=0.5;exitDx=0;exitDy=0;" edge="1" parent="WIyWlLk6GJQsqaUBKTNV-1" source="mW0xl6wsFZFQzlrAiL7S-270" target="mW0xl6wsFZFQzlrAiL7S-272">
          <mxGeometry width="50" height="50" relative="1" as="geometry">
            <mxPoint x="4700" y="1010" as="sourcePoint" />
            <mxPoint x="4680" y="1029.8476923076923" as="targetPoint" />
          </mxGeometry>
        </mxCell>
        <mxCell id="mW0xl6wsFZFQzlrAiL7S-272" value="True" style="rounded=0;whiteSpace=wrap;html=1;" vertex="1" parent="WIyWlLk6GJQsqaUBKTNV-1">
          <mxGeometry x="4740" y="1000" width="120" height="60" as="geometry" />
        </mxCell>
        <mxCell id="mW0xl6wsFZFQzlrAiL7S-273" value="" style="endArrow=classic;html=1;rounded=0;entryX=0.5;entryY=0;entryDx=0;entryDy=0;" edge="1" parent="WIyWlLk6GJQsqaUBKTNV-1" target="mW0xl6wsFZFQzlrAiL7S-274">
          <mxGeometry width="50" height="50" relative="1" as="geometry">
            <mxPoint x="4800" y="1060" as="sourcePoint" />
            <mxPoint x="4800" y="1120" as="targetPoint" />
          </mxGeometry>
        </mxCell>
        <mxCell id="mW0xl6wsFZFQzlrAiL7S-274" value="intIncorrect++;" style="shape=label;whiteSpace=wrap;html=1;fixedSize=1;rounded=0;" vertex="1" parent="WIyWlLk6GJQsqaUBKTNV-1">
          <mxGeometry x="4740" y="1260" width="120" height="60" as="geometry" />
        </mxCell>
        <mxCell id="mW0xl6wsFZFQzlrAiL7S-275" value="" style="endArrow=classic;html=1;rounded=0;entryX=1;entryY=0.5;entryDx=0;entryDy=0;" edge="1" parent="WIyWlLk6GJQsqaUBKTNV-1" source="mW0xl6wsFZFQzlrAiL7S-274" target="mW0xl6wsFZFQzlrAiL7S-279">
          <mxGeometry width="50" height="50" relative="1" as="geometry">
            <mxPoint x="4750" y="1289.67" as="sourcePoint" />
            <mxPoint x="4670" y="1289.67" as="targetPoint" />
          </mxGeometry>
        </mxCell>
        <mxCell id="mW0xl6wsFZFQzlrAiL7S-276" value="" style="endArrow=classic;html=1;rounded=0;entryX=0.5;entryY=0;entryDx=0;entryDy=0;" edge="1" parent="WIyWlLk6GJQsqaUBKTNV-1">
          <mxGeometry width="50" height="50" relative="1" as="geometry">
            <mxPoint x="4629.67" y="1070" as="sourcePoint" />
            <mxPoint x="4629.67" y="1130" as="targetPoint" />
          </mxGeometry>
        </mxCell>
        <mxCell id="mW0xl6wsFZFQzlrAiL7S-277" value="False" style="rounded=0;whiteSpace=wrap;html=1;" vertex="1" parent="WIyWlLk6GJQsqaUBKTNV-1">
          <mxGeometry x="4570" y="1130" width="120" height="60" as="geometry" />
        </mxCell>
        <mxCell id="mW0xl6wsFZFQzlrAiL7S-278" value="" style="endArrow=classic;html=1;rounded=0;" edge="1" parent="WIyWlLk6GJQsqaUBKTNV-1">
          <mxGeometry width="50" height="50" relative="1" as="geometry">
            <mxPoint x="4629.67" y="1190" as="sourcePoint" />
            <mxPoint x="4629.67" y="1260" as="targetPoint" />
          </mxGeometry>
        </mxCell>
        <mxCell id="mW0xl6wsFZFQzlrAiL7S-279" value="intQ5Status=0;" style="shape=label;whiteSpace=wrap;html=1;fixedSize=1;rounded=0;" vertex="1" parent="WIyWlLk6GJQsqaUBKTNV-1">
          <mxGeometry x="4570" y="1260" width="120" height="60" as="geometry" />
        </mxCell>
        <mxCell id="mW0xl6wsFZFQzlrAiL7S-280" value="" style="endArrow=classic;html=1;rounded=0;" edge="1" parent="WIyWlLk6GJQsqaUBKTNV-1">
          <mxGeometry width="50" height="50" relative="1" as="geometry">
            <mxPoint x="4629.66" y="1320" as="sourcePoint" />
            <mxPoint x="4629.66" y="1440" as="targetPoint" />
          </mxGeometry>
        </mxCell>
        <mxCell id="mW0xl6wsFZFQzlrAiL7S-281" value="" style="endArrow=classic;html=1;rounded=0;exitX=1;exitY=0.5;exitDx=0;exitDy=0;entryX=1;entryY=0.5;entryDx=0;entryDy=0;" edge="1" parent="WIyWlLk6GJQsqaUBKTNV-1" target="mW0xl6wsFZFQzlrAiL7S-259">
          <mxGeometry width="50" height="50" relative="1" as="geometry">
            <mxPoint x="4760" y="492.74" as="sourcePoint" />
            <mxPoint x="4700" y="493" as="targetPoint" />
          </mxGeometry>
        </mxCell>
        <mxCell id="mW0xl6wsFZFQzlrAiL7S-282" value="" style="endArrow=classic;html=1;rounded=0;" edge="1" parent="WIyWlLk6GJQsqaUBKTNV-1" target="mW0xl6wsFZFQzlrAiL7S-283">
          <mxGeometry width="50" height="50" relative="1" as="geometry">
            <mxPoint x="4629.23" y="523" as="sourcePoint" />
            <mxPoint x="4630" y="593" as="targetPoint" />
          </mxGeometry>
        </mxCell>
        <mxCell id="mW0xl6wsFZFQzlrAiL7S-283" value="Display incorrect feedback in lblQ5Feeback" style="shape=parallelogram;perimeter=parallelogramPerimeter;whiteSpace=wrap;html=1;fixedSize=1;" vertex="1" parent="WIyWlLk6GJQsqaUBKTNV-1">
          <mxGeometry x="4570" y="603.0000000000001" width="120" height="60" as="geometry" />
        </mxCell>
        <mxCell id="mW0xl6wsFZFQzlrAiL7S-284" value="" style="endArrow=classic;html=1;rounded=0;" edge="1" parent="WIyWlLk6GJQsqaUBKTNV-1" target="mW0xl6wsFZFQzlrAiL7S-285">
          <mxGeometry width="50" height="50" relative="1" as="geometry">
            <mxPoint x="5219.23" y="523" as="sourcePoint" />
            <mxPoint x="5220" y="593" as="targetPoint" />
          </mxGeometry>
        </mxCell>
        <mxCell id="mW0xl6wsFZFQzlrAiL7S-285" value="Display correct&lt;br&gt;feedback in lblQ5Feedback" style="shape=parallelogram;perimeter=parallelogramPerimeter;whiteSpace=wrap;html=1;fixedSize=1;" vertex="1" parent="WIyWlLk6GJQsqaUBKTNV-1">
          <mxGeometry x="5160" y="603.0000000000001" width="120" height="60" as="geometry" />
        </mxCell>
        <mxCell id="mW0xl6wsFZFQzlrAiL7S-286" value="Read in&lt;br&gt;Q5 answer" style="shape=parallelogram;perimeter=parallelogramPerimeter;whiteSpace=wrap;html=1;fixedSize=1;" vertex="1" parent="WIyWlLk6GJQsqaUBKTNV-1">
          <mxGeometry x="4865" y="291" width="120" height="60" as="geometry" />
        </mxCell>
        <mxCell id="mW0xl6wsFZFQzlrAiL7S-287" value="" style="endArrow=classic;html=1;rounded=0;entryX=0.542;entryY=0;entryDx=0;entryDy=0;entryPerimeter=0;" edge="1" parent="WIyWlLk6GJQsqaUBKTNV-1" target="mW0xl6wsFZFQzlrAiL7S-286">
          <mxGeometry width="50" height="50" relative="1" as="geometry">
            <mxPoint x="4930" y="241" as="sourcePoint" />
            <mxPoint x="5070" y="291" as="targetPoint" />
          </mxGeometry>
        </mxCell>
        <mxCell id="mW0xl6wsFZFQzlrAiL7S-288" value="" style="endArrow=classic;html=1;rounded=0;exitX=0.5;exitY=1;exitDx=0;exitDy=0;" edge="1" parent="WIyWlLk6GJQsqaUBKTNV-1" source="mW0xl6wsFZFQzlrAiL7S-70">
          <mxGeometry width="50" height="50" relative="1" as="geometry">
            <mxPoint x="2710" y="1530" as="sourcePoint" />
            <mxPoint x="2700" y="1700" as="targetPoint" />
          </mxGeometry>
        </mxCell>
        <mxCell id="mW0xl6wsFZFQzlrAiL7S-289" value="Display number of correct answer (intCorrect) in&amp;nbsp;lblNumCorrect" style="shape=parallelogram;perimeter=parallelogramPerimeter;whiteSpace=wrap;html=1;fixedSize=1;" vertex="1" parent="WIyWlLk6GJQsqaUBKTNV-1">
          <mxGeometry x="2615" y="1700" width="170" height="80" as="geometry" />
        </mxCell>
        <mxCell id="mW0xl6wsFZFQzlrAiL7S-290" value="" style="endArrow=classic;html=1;rounded=0;exitX=0.5;exitY=1;exitDx=0;exitDy=0;" edge="1" parent="WIyWlLk6GJQsqaUBKTNV-1">
          <mxGeometry width="50" height="50" relative="1" as="geometry">
            <mxPoint x="2699.5" y="1780" as="sourcePoint" />
            <mxPoint x="2700" y="1860" as="targetPoint" />
          </mxGeometry>
        </mxCell>
        <mxCell id="mW0xl6wsFZFQzlrAiL7S-291" value="Display number of incorrect answer (intIncorrect) in&amp;nbsp;lblNumIncorrect" style="shape=parallelogram;perimeter=parallelogramPerimeter;whiteSpace=wrap;html=1;fixedSize=1;" vertex="1" parent="WIyWlLk6GJQsqaUBKTNV-1">
          <mxGeometry x="2615" y="1860" width="170" height="80" as="geometry" />
        </mxCell>
        <mxCell id="mW0xl6wsFZFQzlrAiL7S-292" value="" style="endArrow=classic;html=1;rounded=0;exitX=0.5;exitY=1;exitDx=0;exitDy=0;" edge="1" parent="WIyWlLk6GJQsqaUBKTNV-1">
          <mxGeometry width="50" height="50" relative="1" as="geometry">
            <mxPoint x="2704.5" y="1940" as="sourcePoint" />
            <mxPoint x="2705" y="2020" as="targetPoint" />
          </mxGeometry>
        </mxCell>
        <mxCell id="mW0xl6wsFZFQzlrAiL7S-293" value="Display Percentage of correct answers based on number of questions answered. (intCorrect/(intCorrect+intIncorrect)) in lblPercentCorrect" style="shape=parallelogram;perimeter=parallelogramPerimeter;whiteSpace=wrap;html=1;fixedSize=1;" vertex="1" parent="WIyWlLk6GJQsqaUBKTNV-1">
          <mxGeometry x="2590" y="2020" width="230" height="100" as="geometry" />
        </mxCell>
        <mxCell id="mW0xl6wsFZFQzlrAiL7S-294" value="" style="endArrow=classic;html=1;rounded=0;" edge="1" parent="WIyWlLk6GJQsqaUBKTNV-1">
          <mxGeometry width="50" height="50" relative="1" as="geometry">
            <mxPoint x="2704.5" y="2120" as="sourcePoint" />
            <mxPoint x="2704.5" y="2210" as="targetPoint" />
          </mxGeometry>
        </mxCell>
        <mxCell id="mW0xl6wsFZFQzlrAiL7S-295" value="End" style="ellipse;whiteSpace=wrap;html=1;" vertex="1" parent="WIyWlLk6GJQsqaUBKTNV-1">
          <mxGeometry x="2645" y="2210" width="120" height="80" as="geometry" />
        </mxCell>
        <mxCell id="mW0xl6wsFZFQzlrAiL7S-296" value="intCorrect--;" style="rounded=0;whiteSpace=wrap;html=1;" vertex="1" parent="WIyWlLk6GJQsqaUBKTNV-1">
          <mxGeometry x="1110" y="1000" width="120" height="60" as="geometry" />
        </mxCell>
        <mxCell id="mW0xl6wsFZFQzlrAiL7S-297" value="&lt;span style=&quot;color: rgb(0, 0, 0); font-family: Helvetica; font-size: 12px; font-style: normal; font-variant-ligatures: normal; font-variant-caps: normal; font-weight: 400; letter-spacing: normal; orphans: 2; text-align: center; text-indent: 0px; text-transform: none; widows: 2; word-spacing: 0px; -webkit-text-stroke-width: 0px; background-color: rgb(251, 251, 251); text-decoration-thickness: initial; text-decoration-style: initial; text-decoration-color: initial; float: none; display: inline !important;&quot;&gt;intIncorrect++;&lt;/span&gt;" style="rounded=0;whiteSpace=wrap;html=1;" vertex="1" parent="WIyWlLk6GJQsqaUBKTNV-1">
          <mxGeometry x="1475" y="1260" width="120" height="60" as="geometry" />
        </mxCell>
      </root>
    </mxGraphModel>
  </diagram>
</mxfile>
